<?xml version="1.0" encoding="UTF-8" standalone="no"?>
<!-- Created with Inkscape (http://www.inkscape.org/) -->

<svg
   xmlns:dc="http://purl.org/dc/elements/1.1/"
   xmlns:cc="http://creativecommons.org/ns#"
   xmlns:rdf="http://www.w3.org/1999/02/22-rdf-syntax-ns#"
   xmlns:svg="http://www.w3.org/2000/svg"
   xmlns="http://www.w3.org/2000/svg"
   xmlns:sodipodi="http://sodipodi.sourceforge.net/DTD/sodipodi-0.dtd"
   xmlns:inkscape="http://www.inkscape.org/namespaces/inkscape"
   version="1.1"
   id="svg4520"
   xml:space="preserve"
   width="11in"
   height="8.5in"
   viewBox="0 0 1056 816"
   sodipodi:docname="logo.svg"
   inkscape:version="0.92.1 r15371"><metadata
     id="metadata4526"><rdf:RDF><cc:Work
         rdf:about=""><dc:format>image/svg+xml</dc:format><dc:type
           rdf:resource="http://purl.org/dc/dcmitype/StillImage" /><dc:title></dc:title></cc:Work></rdf:RDF></metadata><defs
     id="defs4524"><clipPath
       clipPathUnits="userSpaceOnUse"
       id="clipPath4536"><path
         d="M 0,0 H 400 V 300 H 0 Z"
         id="path4534"
         inkscape:connector-curvature="0" /></clipPath><radialGradient
       fx="0"
       fy="0"
       cx="0"
       cy="0"
       r="1"
       gradientUnits="userSpaceOnUse"
       gradientTransform="matrix(-399.03094,0,0,299.27322,200.5,147.375)"
       spreadMethod="pad"
       id="radialGradient4548"><stop
         style="stop-opacity:1;stop-color:#ffffff"
         offset="0"
         id="stop4542" /><stop
         style="stop-opacity:1;stop-color:#bdd0dc"
         offset="0.45066157"
         id="stop4544" /><stop
         style="stop-opacity:1;stop-color:#bdd0dc"
         offset="1"
         id="stop4546" /></radialGradient><clipPath
       clipPathUnits="userSpaceOnUse"
       id="clipPath4558"><path
         d="M 0,300 H 400 V 0 H 0 Z"
         id="path4556"
         inkscape:connector-curvature="0" /></clipPath><clipPath
       clipPathUnits="userSpaceOnUse"
       id="clipPath4670"><path
         d="m 246.224,239.722 c -0.843,-0.25 -0.703,-0.8 0.146,-0.547 v 0 c 1.045,0.311 1.839,0.829 2.71,1.484 v 0 c 1.919,1.445 5.255,-0.904 6.747,-2.083 v 0 c 0.342,-0.272 1.645,0.293 1.358,0.519 v 0 c -1.475,1.165 -4.023,2.817 -5.964,2.823 v 0 c -0.005,0 -0.009,0 -0.013,0 v 0 c -2.162,0 -3.071,-1.627 -4.984,-2.196"
         id="path4668"
         inkscape:connector-curvature="0" /></clipPath><radialGradient
       fx="0"
       fy="0"
       cx="0"
       cy="0"
       r="1"
       gradientUnits="userSpaceOnUse"
       gradientTransform="matrix(3.8542609,0,0,-3.8542609,251.45943,240.24866)"
       spreadMethod="pad"
       id="radialGradient4688"><stop
         style="stop-opacity:1;stop-color:#ef7c23"
         offset="0"
         id="stop4676" /><stop
         style="stop-opacity:1;stop-color:#ef7c23"
         offset="0.06317826"
         id="stop4678" /><stop
         style="stop-opacity:1;stop-color:#e1a320"
         offset="0.250523"
         id="stop4680" /><stop
         style="stop-opacity:1;stop-color:#e3c416"
         offset="0.484216"
         id="stop4682" /><stop
         style="stop-opacity:1;stop-color:#bf7d1d"
         offset="0.994382"
         id="stop4684" /><stop
         style="stop-opacity:1;stop-color:#bf7d1d"
         offset="1"
         id="stop4686" /></radialGradient><clipPath
       clipPathUnits="userSpaceOnUse"
       id="clipPath4698"><path
         d="m 252.583,265.029 c -1.531,-2.545 0.201,-6.153 0.772,-8.81 v 0 c 1.193,-5.54 3.374,-11.679 2.569,-17.372 v 0 c -0.103,-0.72 1.376,-0.514 1.464,0.12 v 0 c 0.666,4.707 -0.788,9.299 -1.773,13.875 v 0 c -0.54,2.51 -1.08,5.021 -1.62,7.531 v 0 c -0.803,1.45 -0.506,2.665 0.889,3.645 v 0 c 1.341,-1.423 1.967,-3.459 2.493,-5.291 v 0 c 0.134,-0.464 0.923,-0.374 1.201,-0.123 v 0 c 2.448,2.211 2.702,-2.031 3.301,-3.702 v 0 c 0.203,-0.566 1.209,-0.333 1.415,0.12 v 0 c 0.393,-1.029 0.787,-2.059 1.181,-3.089 v 0 c -0.021,-0.279 0.228,-0.428 0.478,-0.453 v 0 c 4.827,-0.491 -2.751,-10.711 -4.121,-11.995 v 0 c -0.656,-0.615 0.755,-0.829 1.207,-0.406 v 0 c 1.738,1.629 3.238,3.729 4.488,5.749 v 0 c 0.628,1.014 2.128,5.385 1.353,6.348 v 0 c -1.15,1.434 -2.854,6.97 -4.791,5.663 v 0 c -0.21,1.87 -0.532,4.623 -1.926,4.792 v 0 c -1.773,0.215 -1.958,-0.481 -2.714,-1.484 v 0 c -0.808,2.002 -2.704,5.918 -4.459,5.918 v 0 c -0.489,0 -0.967,-0.303 -1.407,-1.036"
         id="path4696"
         inkscape:connector-curvature="0" /></clipPath><radialGradient
       fx="0"
       fy="0"
       cx="0"
       cy="0"
       r="1"
       gradientUnits="userSpaceOnUse"
       gradientTransform="matrix(10.857281,0,0,-10.857281,259.96292,252.22852)"
       spreadMethod="pad"
       id="radialGradient4716"><stop
         style="stop-opacity:1;stop-color:#ef7c23"
         offset="0"
         id="stop4704" /><stop
         style="stop-opacity:1;stop-color:#ef7c23"
         offset="0.06317826"
         id="stop4706" /><stop
         style="stop-opacity:1;stop-color:#e1a320"
         offset="0.250523"
         id="stop4708" /><stop
         style="stop-opacity:1;stop-color:#e3c416"
         offset="0.484216"
         id="stop4710" /><stop
         style="stop-opacity:1;stop-color:#bf7d1d"
         offset="0.994382"
         id="stop4712" /><stop
         style="stop-opacity:1;stop-color:#bf7d1d"
         offset="1"
         id="stop4714" /></radialGradient><clipPath
       clipPathUnits="userSpaceOnUse"
       id="clipPath4726"><path
         d="m 279.196,264.926 c -1.497,-1.447 -2.462,-3.961 -3.5,-5.742 v 0 c -2.31,-3.967 -5.364,-7.077 -8.525,-10.405 v 0 c -0.313,-0.33 1.071,-0.155 1.314,0.101 v 0 c 2.734,2.88 5.748,5.552 7.747,9.011 v 0 c 1.005,1.741 1.963,4.112 3.234,5.898 v 0 c 1.017,-3.738 -0.454,-8.127 -1.353,-11.775 v 0 c -0.088,-0.354 1.287,-0.065 1.43,0.252 v 0 c 0.636,1.411 1.604,3.827 2.842,5.336 v 0 c 0.284,-2.669 -0.493,-6.452 -1.372,-8.63 v 0 c -0.152,-0.377 1.152,0.025 1.272,0.098 v 0 c 1.291,0.798 -0.152,-1.637 -0.334,-2.031 v 0 c -0.58,-1.255 -1.326,-2.558 -2.411,-3.43 v 0 c -0.116,-0.093 -0.067,-0.203 0.064,-0.235 v 0 c 5.466,-1.32 -1.286,-5.697 -4.153,-6.126 v 0 c -0.591,-0.088 -1.285,-0.705 -0.265,-0.552 v 0 c 2.761,0.413 9.434,1.678 8.539,5.673 v 0 c -0.555,2.471 -3.249,0.311 -1.313,3.164 v 0 c 0.493,0.725 2.536,3.808 1.793,4.681 v 0 c -0.162,0.191 -0.761,-0.013 -0.935,-0.076 v 0 c -0.221,-0.08 -0.404,-0.147 -0.565,-0.21 v 0 c 0.881,2.571 1.53,6.542 0.988,8.93 v 0 c -0.081,0.356 -1.126,-0.076 -1.281,-0.167 v 0 c -0.632,-0.375 -1.198,-0.968 -1.707,-1.668 v 0 c 0.583,2.806 0.865,5.742 -0.127,8.148 v 0 c -0.043,0.103 -0.156,0.143 -0.301,0.143 v 0 c -0.371,0 -0.951,-0.263 -1.081,-0.388 m -1.083,-12.912 c 0,0 0,0 0,0"
         id="path4724"
         inkscape:connector-curvature="0" /></clipPath><radialGradient
       fx="0"
       fy="0"
       cx="0"
       cy="0"
       r="1"
       gradientUnits="userSpaceOnUse"
       gradientTransform="matrix(11.608302,0,0,-11.608302,275.76321,250.99303)"
       spreadMethod="pad"
       id="radialGradient4744"><stop
         style="stop-opacity:1;stop-color:#ef7c23"
         offset="0"
         id="stop4732" /><stop
         style="stop-opacity:1;stop-color:#ef7c23"
         offset="0.06317826"
         id="stop4734" /><stop
         style="stop-opacity:1;stop-color:#e1a320"
         offset="0.250523"
         id="stop4736" /><stop
         style="stop-opacity:1;stop-color:#e3c416"
         offset="0.484216"
         id="stop4738" /><stop
         style="stop-opacity:1;stop-color:#bf7d1d"
         offset="0.994382"
         id="stop4740" /><stop
         style="stop-opacity:1;stop-color:#bf7d1d"
         offset="1"
         id="stop4742" /></radialGradient><clipPath
       clipPathUnits="userSpaceOnUse"
       id="clipPath4754"><path
         d="m 275.094,236.317 c 1.405,-0.366 1.465,-1.216 0.183,-2.551 v 0 c -0.693,0.212 -1.349,0.506 -1.972,0.879 v 0 c -0.403,0.223 -1.445,0.036 -1.284,-0.612 v 0 c 0.629,-2.524 -4.209,-0.252 -4.883,0.106 v 0 c -0.884,0.465 -1.526,0.615 -2.486,0.555 v 0 c -0.816,-0.051 -1.118,-1.121 -0.129,-1.059 v 0 c 0.567,0.036 1.852,-0.459 3.282,-0.955 v 0 c 2.568,-0.89 5.606,-1.78 5.808,0.407 v 0 c 1.437,-0.637 3.042,-0.992 4.293,0.096 v 0 c 1.794,1.562 -0.725,3.498 -1.976,4.108 v 0 c -0.083,0.041 -0.176,0.059 -0.271,0.059 v 0 c -0.587,0 -1.28,-0.685 -0.565,-1.033"
         id="path4752"
         inkscape:connector-curvature="0" /></clipPath><radialGradient
       fx="0"
       fy="0"
       cx="0"
       cy="0"
       r="1"
       gradientUnits="userSpaceOnUse"
       gradientTransform="matrix(5.0806241,0,0,-5.0806241,271.21555,234.47734)"
       spreadMethod="pad"
       id="radialGradient4772"><stop
         style="stop-opacity:1;stop-color:#ef7c23"
         offset="0"
         id="stop4760" /><stop
         style="stop-opacity:1;stop-color:#ef7c23"
         offset="0.06317826"
         id="stop4762" /><stop
         style="stop-opacity:1;stop-color:#e1a320"
         offset="0.250523"
         id="stop4764" /><stop
         style="stop-opacity:1;stop-color:#e3c416"
         offset="0.484216"
         id="stop4766" /><stop
         style="stop-opacity:1;stop-color:#bf7d1d"
         offset="0.994382"
         id="stop4768" /><stop
         style="stop-opacity:1;stop-color:#bf7d1d"
         offset="1"
         id="stop4770" /></radialGradient><clipPath
       clipPathUnits="userSpaceOnUse"
       id="clipPath4782"><path
         d="m 245.168,239.173 c 4.498,-1.628 5.351,-6.085 7.827,-9.651 v 0 c 1.819,-2.62 5.12,-3.59 8.109,-3.855 v 0 c 3.942,-0.349 8.173,1.811 11.831,2.969 v 0 c 0.157,0.05 0.975,0.381 0.512,0.59 v 0 c -2.741,1.24 -6.294,1.685 -7.808,4.6 v 0 c -0.217,0.417 -1.608,-0.083 -1.449,-0.389 v 0 c 1.268,-2.44 3.805,-3.197 6.255,-4.075 v 0 c 1.619,-0.579 3.011,0.048 0.623,-0.708 v 0 c -1.47,-0.466 -2.942,-0.932 -4.413,-1.398 v 0 c -5.623,-1.782 -10.744,-0.29 -13.677,4.995 v 0 c -1.844,3.326 -2.818,6.16 -6.634,7.541 v 0 c -0.038,0.013 -0.086,0.02 -0.141,0.02 v 0 c -0.479,0 -1.489,-0.474 -1.035,-0.639"
         id="path4780"
         inkscape:connector-curvature="0" /></clipPath><radialGradient
       fx="0"
       fy="0"
       cx="0"
       cy="0"
       r="1"
       gradientUnits="userSpaceOnUse"
       gradientTransform="matrix(11.003129,0,0,-11.003129,259.60248,232.72032)"
       spreadMethod="pad"
       id="radialGradient4800"><stop
         style="stop-opacity:1;stop-color:#ef7c23"
         offset="0"
         id="stop4788" /><stop
         style="stop-opacity:1;stop-color:#ef7c23"
         offset="0.06317826"
         id="stop4790" /><stop
         style="stop-opacity:1;stop-color:#e1a320"
         offset="0.250523"
         id="stop4792" /><stop
         style="stop-opacity:1;stop-color:#e3c416"
         offset="0.484216"
         id="stop4794" /><stop
         style="stop-opacity:1;stop-color:#bf7d1d"
         offset="0.994382"
         id="stop4796" /><stop
         style="stop-opacity:1;stop-color:#bf7d1d"
         offset="1"
         id="stop4798" /></radialGradient><clipPath
       clipPathUnits="userSpaceOnUse"
       id="clipPath4810"><path
         d="M 0,300 H 400 V 0 H 0 Z"
         id="path4808"
         inkscape:connector-curvature="0" /></clipPath></defs><sodipodi:namedview
     pagecolor="#ffffff"
     bordercolor="#666666"
     borderopacity="1"
     objecttolerance="10"
     gridtolerance="10"
     guidetolerance="10"
     inkscape:pageopacity="0"
     inkscape:pageshadow="2"
     inkscape:window-width="1920"
     inkscape:window-height="1043"
     id="namedview4522"
     showgrid="false"
     inkscape:zoom="1.2775"
     inkscape:cx="438.11687"
     inkscape:cy="408.18582"
     inkscape:window-x="0"
     inkscape:window-y="0"
     inkscape:window-maximized="1"
     inkscape:current-layer="g4528"
     units="in" /><g
     id="g4528"
     inkscape:groupmode="layer"
     inkscape:label="eccejuuuuuuuuuuuuuoficial"
     transform="matrix(1.3333333,0,0,-1.3333333,0,816)"
     style="opacity:0.847"><g
       id="g4530"
       inkscape:export-xdpi="96"
       inkscape:export-ydpi="96"
       style="fill:none"><g
         id="g4532"
         clip-path="url(#clipPath4536)"
         style="fill:none"><g
           id="g4538"
           style="fill:none"><g
             id="g4540"
             style="fill:none"><path
               d="M 0,0 H 400 V 300 H 0 Z"
               style="fill:none;stroke:none"
               id="path4550"
               inkscape:connector-curvature="0" /></g></g></g></g><g
       clip-path="url(#clipPath4558)"
       id="g4554"
       transform="translate(201.36987,72.798437)"
       inkscape:export-xdpi="47.00528"
       inkscape:export-ydpi="47.00528"
       inkscape:export-filename="/home/faustoc/g4804.png"><g
         transform="translate(83.0938,80.1543)"
         id="g4560"
         inkscape:export-xdpi="27.810234"
         inkscape:export-ydpi="27.810234"><path
           inkscape:connector-curvature="0"
           id="path4562"
           style="fill:#231f20;fill-opacity:1;fill-rule:nonzero;stroke:none"
           d="M 0,0 C 1.323,-0.207 2.855,-1.392 2.436,-2.854 2.368,-2.923 1.88,-4.246 0.209,-4.732 -3.411,-5.917 -7.936,-5.779 -11.347,-6.821 -9.397,-2.716 -4.594,0.904 0,0 m 23.221,43.021 c -1.065,-0.117 -2.07,-0.242 -2.964,-0.346 H 20.119 C 18.24,42.464 16.638,42.258 15.385,41.978 11.766,41.143 8.842,39.751 6.266,37.731 3.689,35.713 1.462,32.927 -0.208,29.587 -2.227,25.41 -3.55,20.398 -3.967,14.618 c -0.07,-0.695 0.417,-1.253 1.113,-1.322 h 0.07 c 0.627,0 1.184,0.421 1.253,1.113 0.627,6.964 2.367,12.671 5.291,16.918 0.139,0.21 0.208,0.348 0.348,0.487 1.044,1.533 2.228,2.854 3.619,3.899 2.089,1.672 5.848,3.897 8.354,3.897 1.184,0.21 2.297,0.21 3.272,0.21 h 0.07 c 1.74,0 2.923,-0.21 2.923,-0.21 h 0.07 C 20.397,38.774 18.448,35.015 17.474,32.72 13.297,20.259 9.329,7.729 5.291,-4.732 L 4.595,-6.474 c 0,0 -5.151,-17.054 -11.208,-15.525 -1.949,0.211 -5.43,1.255 -6.404,5.851 -0.557,2.712 0.138,4.942 0.696,7.028 4.247,0.976 12.043,0.837 15.245,3.133 1.601,1.114 2.228,3.343 1.253,5.221 -2.228,4.037 -7.239,3.83 -10.72,2.228 -3.063,-1.462 -5.638,-4.106 -7.101,-6.615 -0.418,-0.694 -0.766,-1.46 -0.974,-2.155 -7.449,-1.532 -15.733,-5.918 -14.341,-14.55 0.279,-1.463 1.601,-2.714 3.202,-2.785 1.461,-0.069 2.437,1.115 2.159,2.577 -0.419,6.822 2.436,10.302 8.144,12.112 -1.88,-6.194 1.183,-13.506 7.031,-15.872 3.759,-1.253 7.727,-1.323 10.929,1.183 2.924,2.228 5.013,6.405 5.779,8.145 6.055,14.83 11.834,33.206 13.366,38.077 l 0.069,0.141 1.601,4.594 h -0.07 c 1.464,3.171 2.75,6.385 4.007,9.133 0.98,2.397 2.02,4.764 3.152,7.085 0.043,0.253 0.1,0.506 0.137,0.76 -0.001,0 0,0.017 0,0.022 -0.218,0.014 -0.436,0.019 -0.654,0.027 -2.211,-0.181 -4.439,-0.273 -6.672,-0.32" /></g><g
         transform="translate(154.9395,83.2178)"
         id="g4564"
         inkscape:export-xdpi="27.810234"
         inkscape:export-ydpi="27.810234"><path
           inkscape:connector-curvature="0"
           id="path4566"
           style="fill:#231f20;fill-opacity:1;fill-rule:nonzero;stroke:none"
           d="m 0,0 c -5.222,-11.764 -14.479,-31.256 -24.852,-29.585 -2.367,0.349 -4.108,1.393 -5.221,2.783 -0.905,1.115 -1.462,2.506 -1.741,3.968 -0.626,3.203 0,7.31 0.836,10.931 -4.177,-7.589 -9.467,-14.551 -15.176,-13.646 -1.949,0.279 -3.41,1.113 -4.316,2.298 -0.696,0.905 -1.183,2.019 -1.392,3.202 -0.696,3.899 0.696,9.33 1.74,12.739 l 0.07,0.07 4.247,13.435 c 0,0 1.252,2.089 3.898,1.535 2.715,-0.56 1.809,-3.274 1.809,-3.274 -3.341,-10.373 -3.828,-13.086 -4.873,-16.708 -0.348,-1.252 -1.739,-6.404 0.558,-8.773 0,0 2.019,-1.667 4.525,-0.138 2.923,1.951 5.917,6.893 8.284,11.346 1.461,2.649 2.644,5.431 3.968,8.496 l 4.872,13.923 c 0,0 1.462,2.574 4.735,1.877 3.272,-0.696 2.226,-4.037 2.226,-4.037 -4.106,-12.671 -6.263,-19.352 -7.587,-23.738 -0.418,-1.531 -2.088,-7.867 0.696,-10.789 0,0 2.507,-2.02 5.5,-0.14 3.62,2.367 7.309,8.422 10.163,13.854 1.809,3.27 3.273,6.682 4.873,10.371 z" /></g><g
         transform="translate(178.8242,97.1416)"
         id="g4568"
         inkscape:export-xdpi="27.810234"
         inkscape:export-ydpi="27.810234"><path
           inkscape:connector-curvature="0"
           id="path4570"
           style="fill:#231f20;fill-opacity:1;fill-rule:nonzero;stroke:none"
           d="m 0,0 c -0.698,0.347 -1.394,0.139 -1.949,-0.421 -0.14,-0.276 -0.279,-0.555 -0.419,-0.834 0,0 -1.462,-5.013 0.347,-9.885 0.139,-0.348 0.279,-0.765 0.419,-1.114 C 0.208,-6.545 1.599,-0.835 0,0 m 17.054,-13.924 c -4.943,-12.39 -9.468,-13.852 -12.878,-12.044 -1.88,0.975 -3.55,2.926 -4.874,5.152 -4.943,-12.948 -10.024,-18.377 -12.947,-20.607 -0.14,-0.067 -0.279,-0.137 -0.349,-0.276 -0.627,-0.417 -1.253,-0.766 -1.879,-1.045 -0.209,-0.07 -0.28,-0.07 -0.28,-0.07 -3.759,-1.323 -6.96,1.044 -7.238,1.324 -4.107,3.55 -5.291,10.372 -5.569,14.896 -0.349,5.849 1.391,13.784 2.087,16.708 1.393,5.848 2.159,7.239 5.5,7.728 0.348,0.068 3.551,-0.211 2.506,-4.457 0,0 -0.278,-0.974 -0.696,-2.506 -0.069,0 -4.038,-15.385 -1.323,-23.459 1.183,-3.063 3.272,-4.248 6.474,-2.646 0.418,0.208 0.836,0.488 1.253,0.835 4.526,3.692 8.494,14.55 9.608,17.752 l 0.208,0.487 c 0.07,0.279 0.07,0.347 0.07,0.347 -1.532,2.717 -2.437,6.754 -2.368,10.304 -0.417,8.424 5.014,9.19 5.014,9.19 C 1.112,3.898 2.296,3.41 3.131,2.575 5.01,0.347 4.385,-3.691 3.966,-5.36 2.924,-9.745 1.809,-13.577 0.626,-16.987 c 1.601,-3.202 3.062,-5.012 4.455,-5.847 5.569,-3.064 9.815,8.91 9.815,8.91 z" /></g><g
         transform="translate(228.6006,83.2178)"
         id="g4572"
         inkscape:export-xdpi="27.810234"
         inkscape:export-ydpi="27.810234"><path
           inkscape:connector-curvature="0"
           id="path4574"
           style="fill:#231f20;fill-opacity:1;fill-rule:nonzero;stroke:none"
           d="m 0,0 c 0,0 -5.22,-13.159 -13.017,-21.998 -3.968,-4.456 -8.632,-7.797 -13.575,-7.728 -6.404,0.49 -12.114,5.641 -12.669,12.532 -1.114,9.884 4.106,24.223 14.479,28.681 6.334,2.783 12.461,-0.211 10.718,-8.216 -2.226,-9.465 -11.761,-11.835 -16.009,-10.581 -0.627,0.417 -0.07,0.976 0.347,0.976 0.627,0 2.02,0 3.761,0.348 5.013,1.32 10.789,11.553 4.941,11.973 -10.024,-2.159 -17.194,-26.385 -6.75,-31.536 1.949,-0.905 13.085,-4.315 25.617,25.549 z" /></g><g
         transform="translate(271.5537,83.2178)"
         id="g4576"
         inkscape:export-xdpi="27.810234"
         inkscape:export-ydpi="27.810234"><path
           inkscape:connector-curvature="0"
           id="path4578"
           style="fill:#231f20;fill-opacity:1;fill-rule:nonzero;stroke:none"
           d="m 0,0 c -5.218,-11.764 -14.477,-31.256 -24.85,-29.585 -2.368,0.349 -4.107,1.393 -5.222,2.783 -3.827,4.596 -1.322,13.993 0.486,19.492 v 0.07 l 7.868,22.833 c 0.628,2.158 -1.253,1.323 -2.228,0.42 -5.915,-9.261 -16.149,-25.481 -18.936,-29.239 -1.181,-1.533 -2.226,-2.229 -4.038,-1.881 -2.505,1.741 -2.224,5.222 -1.598,7.797 0,0 3.201,9.466 5.569,16.639 0.139,0.417 0.487,0.903 1.042,1.183 0.488,0.278 1.115,0.417 5.501,0.347 1.322,0 0.419,-2.784 0.277,-3.342 -0.973,-2.783 -1.948,-5.638 -3.549,-10.092 -0.069,-0.348 -0.069,-0.558 0.206,-0.348 0.142,0.139 0.075,0.348 14.344,21.719 2.644,3.968 8.213,5.708 10.86,1.809 0.833,-1.601 0.486,-3.341 0.066,-5.152 -5.149,-16.01 -7.724,-23.876 -9.187,-28.749 -0.416,-1.531 -2.087,-7.867 0.697,-10.789 0,0 2.504,-2.02 5.499,-0.14 3.619,2.367 7.309,8.422 10.164,13.854 1.811,3.27 3.273,6.682 4.875,10.371 z" /></g><g
         transform="translate(274.623,102.293)"
         id="g4580"
         inkscape:export-xdpi="27.810234"
         inkscape:export-ydpi="27.810234"><path
           inkscape:connector-curvature="0"
           id="path4582"
           style="fill:#231f20;fill-opacity:1;fill-rule:nonzero;stroke:none"
           d="M 0,0 C 0.767,2.437 3.342,4.313 5.846,4.313 8.142,4.313 9.467,2.437 8.702,0 7.936,-2.436 5.429,-4.386 2.924,-4.386 0.486,-4.386 -0.834,-2.436 0,0 m 18.238,-19.562 c -4.247,-9.745 -14.896,-34.251 -24.642,-28.333 -1.814,1.253 -2.506,4.037 -2.715,7.101 -0.35,5.637 1.112,12.601 2.576,18.098 2.228,6.545 1.738,6.337 4.107,13.16 1.18,3.13 4.246,2.991 5.708,2.434 2.087,-0.627 1.809,-3.202 1.323,-5.012 -3.481,-12.668 -5.363,-15.105 -7.312,-28.124 0,0 -0.835,-5.429 2.3,-4.942 5.29,1.809 14.478,19.979 16.983,26.732 z" /></g><g
         transform="translate(304.1416,96.6543)"
         id="g4584"
         inkscape:export-xdpi="27.810234"
         inkscape:export-ydpi="27.810234"><path
           inkscape:connector-curvature="0"
           id="path4586"
           style="fill:#231f20;fill-opacity:1;fill-rule:nonzero;stroke:none"
           d="M 0,0 C 0.348,1.181 2.157,6.681 4.524,12.041 13.852,32.578 18.727,36.757 20.676,33.134 21.092,30.489 16.638,23.041 15.384,20.951 13.088,17.334 9.953,12.6 -0.07,-0.28 Z m 11.777,-9.932 c -0.759,-0.915 -1.488,-1.893 -2.172,-2.947 -4.176,-6.404 -11.136,-25.062 -16.987,-26.731 -3.13,-0.489 -2.295,4.941 -2.295,4.941 1.321,10.442 5.013,18.657 7.659,28.541 0,0 1.738,1.394 9.328,10.793 9.466,12.249 17.82,24.85 16.498,29.793 -0.209,1.252 -0.976,2.367 -2.369,3.34 -16.915,6.407 -27.634,-31.951 -35.294,-55.966 -2.226,-7.659 -2.363,-14.274 -2.363,-14.551 -0.074,-3.898 0.554,-7.937 2.85,-9.607 10.304,-5.5 16.501,14.341 24.993,28.958 0.014,0.02 0.028,0.041 0.04,0.061 -0.304,1.005 -0.309,2.155 0.112,3.375" /></g><g
         transform="translate(347.6689,96.0508)"
         id="g4588"
         inkscape:export-xdpi="27.810234"
         inkscape:export-ydpi="27.810234"><path
           inkscape:connector-curvature="0"
           id="path4590"
           style="fill:#231f20;fill-opacity:1;fill-rule:nonzero;stroke:none"
           d="m 0,0 c -2.258,-2.297 -6.285,-3.237 -8.329,-0.025 -0.488,0.807 -0.934,1.902 -1.145,2.825 -0.28,1.48 -0.639,3.673 0.829,4.637 1.049,0.692 2.437,0.405 3.063,-0.616 0.792,-1.166 0.185,-2.421 -0.8,-3.138 0,0 -0.027,-0.066 -0.052,-0.125 -0.803,-0.645 -0.605,-1.788 -0.119,-2.603 1.289,-2.131 4.11,-0.825 5.302,0.556 4.022,4.499 -2.526,10.82 -6.614,11.342 -7.857,0.906 -13.54,-5.381 -17.008,-11.247 -3.183,-5.496 -5.482,-11.651 -8.616,-16.96 -0.665,0.083 -1.336,0.14 -2.012,0.166 5.122,9.347 6.938,13.655 9.235,17.61 3.935,6.801 10.309,13.102 18.539,12.186 C -1.134,13.935 5.157,5.226 0,0" /></g></g><g
       id="g4664"
       inkscape:export-xdpi="47.00528"
       inkscape:export-ydpi="47.00528"
       transform="translate(-10.921594,-76.707348)"
       inkscape:export-filename="/home/faustoc/g4804.png"><g
         id="g4666"
         clip-path="url(#clipPath4670)"><g
           id="g4672"><g
             id="g4674"><path
               d="m 246.224,239.722 c -0.843,-0.25 -0.703,-0.8 0.146,-0.547 v 0 c 1.045,0.311 1.839,0.829 2.71,1.484 v 0 c 1.919,1.445 5.255,-0.904 6.747,-2.083 v 0 c 0.342,-0.272 1.645,0.293 1.358,0.519 v 0 c -1.475,1.165 -4.023,2.817 -5.964,2.823 v 0 c -0.005,0 -0.009,0 -0.013,0 v 0 c -2.162,0 -3.071,-1.627 -4.984,-2.196"
               style="fill:url(#radialGradient4688);stroke:none"
               id="path4690"
               inkscape:connector-curvature="0" /></g></g></g></g><g
       id="g4692"
       inkscape:export-xdpi="47.00528"
       inkscape:export-ydpi="47.00528"
       transform="translate(-10.921594,-76.707348)"
       inkscape:export-filename="/home/faustoc/g4804.png"><g
         id="g4694"
         clip-path="url(#clipPath4698)"><g
           id="g4700"><g
             id="g4702"><path
               d="m 252.583,265.029 c -1.531,-2.545 0.201,-6.153 0.772,-8.81 v 0 c 1.193,-5.54 3.374,-11.679 2.569,-17.372 v 0 c -0.103,-0.72 1.376,-0.514 1.464,0.12 v 0 c 0.666,4.707 -0.788,9.299 -1.773,13.875 v 0 c -0.54,2.51 -1.08,5.021 -1.62,7.531 v 0 c -0.803,1.45 -0.506,2.665 0.889,3.645 v 0 c 1.341,-1.423 1.967,-3.459 2.493,-5.291 v 0 c 0.134,-0.464 0.923,-0.374 1.201,-0.123 v 0 c 2.448,2.211 2.702,-2.031 3.301,-3.702 v 0 c 0.203,-0.566 1.209,-0.333 1.415,0.12 v 0 c 0.393,-1.029 0.787,-2.059 1.181,-3.089 v 0 c -0.021,-0.279 0.228,-0.428 0.478,-0.453 v 0 c 4.827,-0.491 -2.751,-10.711 -4.121,-11.995 v 0 c -0.656,-0.615 0.755,-0.829 1.207,-0.406 v 0 c 1.738,1.629 3.238,3.729 4.488,5.749 v 0 c 0.628,1.014 2.128,5.385 1.353,6.348 v 0 c -1.15,1.434 -2.854,6.97 -4.791,5.663 v 0 c -0.21,1.87 -0.532,4.623 -1.926,4.792 v 0 c -1.773,0.215 -1.958,-0.481 -2.714,-1.484 v 0 c -0.808,2.002 -2.704,5.918 -4.459,5.918 v 0 c -0.489,0 -0.967,-0.303 -1.407,-1.036"
               style="fill:url(#radialGradient4716);stroke:none"
               id="path4718"
               inkscape:connector-curvature="0" /></g></g></g></g><g
       id="g4720"
       inkscape:export-xdpi="47.00528"
       inkscape:export-ydpi="47.00528"
       transform="translate(-10.921594,-76.707348)"
       inkscape:export-filename="/home/faustoc/g4804.png"><g
         id="g4722"
         clip-path="url(#clipPath4726)"><g
           id="g4728"><g
             id="g4730"><path
               d="m 279.196,264.926 c -1.497,-1.447 -2.462,-3.961 -3.5,-5.742 v 0 c -2.31,-3.967 -5.364,-7.077 -8.525,-10.405 v 0 c -0.313,-0.33 1.071,-0.155 1.314,0.101 v 0 c 2.734,2.88 5.748,5.552 7.747,9.011 v 0 c 1.005,1.741 1.963,4.112 3.234,5.898 v 0 c 1.017,-3.738 -0.454,-8.127 -1.353,-11.775 v 0 c -0.088,-0.354 1.287,-0.065 1.43,0.252 v 0 c 0.636,1.411 1.604,3.827 2.842,5.336 v 0 c 0.284,-2.669 -0.493,-6.452 -1.372,-8.63 v 0 c -0.152,-0.377 1.152,0.025 1.272,0.098 v 0 c 1.291,0.798 -0.152,-1.637 -0.334,-2.031 v 0 c -0.58,-1.255 -1.326,-2.558 -2.411,-3.43 v 0 c -0.116,-0.093 -0.067,-0.203 0.064,-0.235 v 0 c 5.466,-1.32 -1.286,-5.697 -4.153,-6.126 v 0 c -0.591,-0.088 -1.285,-0.705 -0.265,-0.552 v 0 c 2.761,0.413 9.434,1.678 8.539,5.673 v 0 c -0.555,2.471 -3.249,0.311 -1.313,3.164 v 0 c 0.493,0.725 2.536,3.808 1.793,4.681 v 0 c -0.162,0.191 -0.761,-0.013 -0.935,-0.076 v 0 c -0.221,-0.08 -0.404,-0.147 -0.565,-0.21 v 0 c 0.881,2.571 1.53,6.542 0.988,8.93 v 0 c -0.081,0.356 -1.126,-0.076 -1.281,-0.167 v 0 c -0.632,-0.375 -1.198,-0.968 -1.707,-1.668 v 0 c 0.583,2.806 0.865,5.742 -0.127,8.148 v 0 c -0.043,0.103 -0.156,0.143 -0.301,0.143 v 0 c -0.371,0 -0.951,-0.263 -1.081,-0.388 m -1.083,-12.912 c 0,0 0,0 0,0"
               style="fill:url(#radialGradient4744);stroke:none"
               id="path4746"
               inkscape:connector-curvature="0" /></g></g></g></g><g
       id="g4748"
       inkscape:export-xdpi="47.00528"
       inkscape:export-ydpi="47.00528"
       transform="translate(-10.921594,-76.707348)"
       inkscape:export-filename="/home/faustoc/g4804.png"><g
         id="g4750"
         clip-path="url(#clipPath4754)"><g
           id="g4756"><g
             id="g4758"><path
               d="m 275.094,236.317 c 1.405,-0.366 1.465,-1.216 0.183,-2.551 v 0 c -0.693,0.212 -1.349,0.506 -1.972,0.879 v 0 c -0.403,0.223 -1.445,0.036 -1.284,-0.612 v 0 c 0.629,-2.524 -4.209,-0.252 -4.883,0.106 v 0 c -0.884,0.465 -1.526,0.615 -2.486,0.555 v 0 c -0.816,-0.051 -1.118,-1.121 -0.129,-1.059 v 0 c 0.567,0.036 1.852,-0.459 3.282,-0.955 v 0 c 2.568,-0.89 5.606,-1.78 5.808,0.407 v 0 c 1.437,-0.637 3.042,-0.992 4.293,0.096 v 0 c 1.794,1.562 -0.725,3.498 -1.976,4.108 v 0 c -0.083,0.041 -0.176,0.059 -0.271,0.059 v 0 c -0.587,0 -1.28,-0.685 -0.565,-1.033"
               style="fill:url(#radialGradient4772);stroke:none"
               id="path4774"
               inkscape:connector-curvature="0" /></g></g></g></g><g
       id="g4776"
       inkscape:export-xdpi="47.00528"
       inkscape:export-ydpi="47.00528"
       transform="translate(-10.921594,-76.707348)"
       inkscape:export-filename="/home/faustoc/g4804.png"><g
         id="g4778"
         clip-path="url(#clipPath4782)"><g
           id="g4784"><g
             id="g4786"><path
               d="m 245.168,239.173 c 4.498,-1.628 5.351,-6.085 7.827,-9.651 v 0 c 1.819,-2.62 5.12,-3.59 8.109,-3.855 v 0 c 3.942,-0.349 8.173,1.811 11.831,2.969 v 0 c 0.157,0.05 0.975,0.381 0.512,0.59 v 0 c -2.741,1.24 -6.294,1.685 -7.808,4.6 v 0 c -0.217,0.417 -1.608,-0.083 -1.449,-0.389 v 0 c 1.268,-2.44 3.805,-3.197 6.255,-4.075 v 0 c 1.619,-0.579 3.011,0.048 0.623,-0.708 v 0 c -1.47,-0.466 -2.942,-0.932 -4.413,-1.398 v 0 c -5.623,-1.782 -10.744,-0.29 -13.677,4.995 v 0 c -1.844,3.326 -2.818,6.16 -6.634,7.541 v 0 c -0.038,0.013 -0.086,0.02 -0.141,0.02 v 0 c -0.479,0 -1.489,-0.474 -1.035,-0.639"
               style="fill:url(#radialGradient4800);stroke:none"
               id="path4802"
               inkscape:connector-curvature="0" /></g></g></g></g><g
       id="g4804"
       inkscape:export-xdpi="47.00528"
       inkscape:export-ydpi="47.00528"
       inkscape:export-filename="/home/faustoc/g4804.png"><g
         id="g4806"
         clip-path="url(#clipPath4810)"
         inkscape:export-xdpi="35.25396"
         inkscape:export-ydpi="35.25396"><g
           id="g4824"
           transform="translate(84.897457,170.71302)"><path
             d="m 0,0 c 0.068,2.223 0.102,4.296 0.102,6.217 0,1.921 -0.034,3.842 -0.102,5.761 -0.032,2.291 0.623,4.38 1.971,6.269 0.337,0.471 0.759,0.783 1.264,0.935 0.506,0.151 1.027,0.259 1.568,0.327 1.38,0.068 2.754,0.085 4.119,0.052 1.364,-0.035 2.737,-0.084 4.12,-0.152 1.077,-0.068 2.147,-0.136 3.208,-0.202 1.062,-0.068 2.131,-0.136 3.211,-0.202 2.323,-0.17 4.642,-0.363 6.949,-0.582 2.308,-0.22 4.607,-0.598 6.9,-1.137 1.649,-0.405 3.149,-1.061 4.498,-1.972 0.133,-0.101 0.261,-0.193 0.379,-0.278 0.117,-0.084 0.209,-0.193 0.277,-0.327 0.236,-0.372 0.28,-0.691 0.128,-0.96 -0.153,-0.272 -0.43,-0.422 -0.835,-0.457 h -2.3 c -0.759,0 -1.523,0.019 -2.299,0.051 -1.551,0.068 -3.101,0.134 -4.65,0.202 -1.551,0.068 -3.118,0.185 -4.701,0.354 -1.718,0.136 -3.421,0.236 -5.106,0.304 -1.683,0.066 -3.385,0.169 -5.104,0.302 -0.406,0.034 -0.808,0.052 -1.213,0.052 H 11.17 c -0.37,-0.035 -0.599,-0.111 -0.681,-0.228 -0.086,-0.117 -0.094,-0.362 -0.026,-0.732 0.067,-0.305 0.136,-0.615 0.203,-0.936 0.066,-0.321 0.134,-0.632 0.202,-0.934 0.133,-0.473 0.269,-0.767 0.403,-0.884 0.135,-0.12 0.457,-0.179 0.96,-0.179 1.213,-0.033 2.419,-0.033 3.616,0 1.195,0.035 2.4,0.018 3.614,-0.05 2.527,-0.068 5.053,-0.32 7.58,-0.759 C 28.053,9.654 29.096,9.316 30.176,8.846 30.951,8.508 31.582,8.037 32.07,7.431 32.56,6.824 33.038,6.182 33.512,5.51 33.612,5.341 33.696,5.164 33.765,4.979 33.83,4.792 33.781,4.615 33.612,4.448 33.477,4.278 33.326,4.212 33.158,4.245 32.989,4.278 32.82,4.312 32.652,4.346 c -1.717,0.337 -3.421,0.522 -5.105,0.557 -1.687,0.033 -3.387,0.033 -5.105,0 -3.033,0 -6.083,0.101 -9.149,0.302 h -1.01 c -0.405,0 -0.624,-0.201 -0.658,-0.606 0,-0.101 -0.009,-0.194 -0.025,-0.278 -0.017,-0.084 -0.025,-0.16 -0.025,-0.226 -0.169,-3.674 -0.277,-7.33 -0.329,-10.968 -0.049,-3.641 -0.008,-7.297 0.128,-10.969 0.101,-2.966 0.158,-5.888 0.177,-8.769 0.016,-2.881 0.024,-5.787 0.024,-8.721 0,-0.538 -0.018,-1.068 -0.052,-1.592 -0.032,-0.521 -0.084,-1.053 -0.149,-1.592 -0.136,-1.077 0.117,-1.98 0.757,-2.704 0.64,-0.723 1.499,-1.137 2.579,-1.238 0.841,-0.067 1.668,-0.108 2.476,-0.126 0.808,-0.018 1.632,-0.043 2.476,-0.075 2.055,-0.035 4.103,-0.085 6.141,-0.152 2.039,-0.068 4.085,-0.136 6.141,-0.203 0.64,0 1.272,-0.076 1.897,-0.227 0.623,-0.152 1.238,-0.311 1.845,-0.48 0.941,-0.271 1.567,-0.843 1.869,-1.718 0.134,-0.472 0.142,-0.809 0.025,-1.01 -0.117,-0.204 -0.414,-0.338 -0.885,-0.406 -0.876,-0.1 -1.768,-0.194 -2.677,-0.278 -0.912,-0.084 -1.821,-0.143 -2.73,-0.176 -1.921,-0.068 -3.817,-0.129 -5.686,-0.177 -1.872,-0.051 -3.766,-0.112 -5.687,-0.177 -0.64,0 -1.263,-0.019 -1.869,-0.052 -0.607,-0.033 -1.214,-0.049 -1.82,-0.049 -0.744,-0.035 -1.451,-0.144 -2.123,-0.33 -0.674,-0.184 -1.382,-0.312 -2.123,-0.378 -1.18,-0.067 -2.334,0.017 -3.463,0.251 -1.129,0.237 -2.199,0.675 -3.21,1.315 -0.673,0.437 -1.231,1.004 -1.668,1.694 -0.439,0.689 -0.792,1.423 -1.062,2.198 -0.269,0.741 -0.403,1.484 -0.403,2.224 0,0.708 -0.06,1.415 -0.177,2.122 -0.119,0.708 -0.244,1.416 -0.38,2.125 -0.169,1.01 -0.286,2.022 -0.354,3.031 -0.068,1.012 -0.117,2.022 -0.15,3.033 -0.068,2.19 -0.176,4.364 -0.329,6.521 -0.152,2.155 -0.278,4.329 -0.379,6.52 -0.102,1.92 -0.203,3.841 -0.303,5.762 C 0,-9.755 -0.032,-7.834 0,-5.913 0.033,-4.836 0.041,-3.773 0.025,-2.729 0.009,-1.684 0,-0.775 0,0"
             style="fill:#bf1b2c;fill-opacity:1;fill-rule:nonzero;stroke:none"
             id="path4826"
             inkscape:connector-curvature="0" /></g><g
           id="g4828"
           transform="translate(147.52146,189.92012)"><path
             d="m 0,0 c 2.494,-0.202 4.785,-0.884 6.875,-2.046 2.088,-1.164 3.823,-2.976 5.205,-5.434 0.943,-1.686 1.364,-3.54 1.263,-5.561 0,-0.202 -0.016,-0.354 -0.049,-0.455 -0.068,-0.269 -0.169,-0.522 -0.305,-0.759 -0.134,-0.234 -0.353,-0.387 -0.656,-0.454 -0.573,-0.134 -1.06,0.101 -1.466,0.707 -0.37,0.64 -0.767,1.265 -1.186,1.872 -0.422,0.607 -0.852,1.228 -1.29,1.869 -0.607,0.876 -1.333,1.584 -2.174,2.123 -0.843,0.538 -1.769,0.944 -2.78,1.213 -0.573,0.169 -1.12,0.169 -1.642,0 C 1.271,-7.093 0.74,-7.278 0.203,-7.48 c -1.417,-0.574 -2.57,-1.398 -3.463,-2.478 -0.892,-1.078 -1.693,-2.24 -2.4,-3.486 -0.708,-1.249 -1.274,-2.528 -1.695,-3.842 -0.421,-1.315 -0.765,-2.681 -1.035,-4.095 -0.271,-1.415 -0.489,-2.822 -0.658,-4.221 -0.169,-1.398 -0.337,-2.804 -0.506,-4.22 -0.1,-0.875 -0.176,-1.736 -0.226,-2.576 -0.051,-0.844 -0.111,-1.704 -0.177,-2.58 -0.034,-0.876 -0.067,-1.744 -0.101,-2.601 -0.035,-0.86 -0.051,-1.728 -0.051,-2.605 -0.033,-1.787 0.016,-3.555 0.152,-5.307 0.134,-1.753 0.355,-3.505 0.656,-5.255 0.136,-0.811 0.27,-1.627 0.406,-2.451 0.133,-0.827 0.335,-1.627 0.606,-2.403 0.303,-0.944 0.684,-1.828 1.138,-2.653 0.454,-0.827 1.086,-1.542 1.894,-2.147 0.269,-0.17 0.53,-0.321 0.783,-0.456 0.253,-0.134 0.514,-0.235 0.784,-0.302 0.471,-0.137 0.918,-0.153 1.338,-0.053 0.422,0.102 0.835,0.371 1.241,0.811 1.078,1.144 1.954,2.381 2.629,3.714 0.672,1.331 1.194,2.754 1.564,4.272 0.405,1.617 0.708,3.301 0.911,5.053 0.067,0.438 0.178,0.836 0.329,1.189 0.151,0.354 0.361,0.699 0.632,1.034 0.335,0.372 0.733,0.515 1.187,0.431 0.455,-0.085 0.784,-0.346 0.985,-0.784 0,-0.068 0.008,-0.109 0.026,-0.126 0.017,-0.016 0.026,-0.059 0.026,-0.125 0.032,-0.811 0.151,-1.611 0.353,-2.403 0.201,-0.791 0.237,-1.608 0.101,-2.451 C 7.463,-51.774 7.235,-52.947 6.949,-54.109 6.663,-55.27 6.285,-56.392 5.812,-57.469 5.374,-58.514 4.854,-59.482 4.246,-60.375 3.64,-61.268 2.981,-62.138 2.274,-62.978 1.904,-63.417 1.523,-63.83 1.137,-64.217 0.75,-64.605 0.37,-65.001 0,-65.406 c -0.675,-0.707 -1.432,-1.203 -2.275,-1.489 -0.841,-0.289 -1.717,-0.514 -2.628,-0.683 -1.685,-0.27 -3.26,-0.193 -4.725,0.226 -1.466,0.422 -2.908,1.07 -4.323,1.946 -1.886,1.146 -3.303,2.595 -4.244,4.347 -0.945,1.753 -1.653,3.658 -2.123,5.712 -0.272,1.282 -0.525,2.561 -0.759,3.842 -0.236,1.279 -0.387,2.577 -0.454,3.892 -0.169,2.021 -0.262,4.035 -0.279,6.04 -0.016,2.005 0.041,4.018 0.177,6.04 0.134,2.223 0.32,4.414 0.556,6.571 0.234,2.155 0.572,4.314 1.012,6.47 0.336,1.851 0.697,3.68 1.086,5.483 0.386,1.802 0.985,3.565 1.794,5.282 0.875,1.82 1.904,3.472 3.084,4.955 1.178,1.48 2.593,2.794 4.246,3.942 1.414,0.977 2.93,1.674 4.548,2.096 C -3.69,-0.312 -1.921,-0.068 0,0"
             style="fill:#bf1b2c;fill-opacity:1;fill-rule:nonzero;stroke:none"
             id="path4830"
             inkscape:connector-curvature="0" /></g><g
           id="g4832"
           transform="translate(184.21486,189.92012)"><path
             d="m 0,0 c 2.496,-0.202 4.787,-0.884 6.877,-2.046 2.086,-1.164 3.822,-2.976 5.205,-5.434 0.941,-1.686 1.363,-3.54 1.262,-5.561 0,-0.202 -0.016,-0.354 -0.049,-0.455 -0.068,-0.269 -0.168,-0.522 -0.305,-0.759 -0.133,-0.234 -0.353,-0.387 -0.656,-0.454 -0.574,-0.134 -1.061,0.101 -1.467,0.707 -0.369,0.64 -0.765,1.265 -1.185,1.872 -0.422,0.607 -0.852,1.228 -1.289,1.869 -0.608,0.876 -1.334,1.584 -2.174,2.123 -0.844,0.538 -1.77,0.944 -2.781,1.213 -0.573,0.169 -1.12,0.169 -1.641,0 C 1.271,-7.093 0.74,-7.278 0.205,-7.48 -1.213,-8.054 -2.367,-8.878 -3.26,-9.958 c -0.892,-1.078 -1.691,-2.24 -2.4,-3.486 -0.707,-1.249 -1.272,-2.528 -1.694,-3.842 -0.421,-1.315 -0.765,-2.681 -1.035,-4.095 -0.271,-1.415 -0.49,-2.822 -0.658,-4.221 -0.168,-1.398 -0.338,-2.804 -0.506,-4.22 -0.099,-0.875 -0.176,-1.736 -0.226,-2.576 -0.051,-0.844 -0.112,-1.704 -0.176,-2.58 -0.035,-0.876 -0.068,-1.744 -0.102,-2.601 -0.035,-0.86 -0.05,-1.728 -0.05,-2.605 -0.034,-1.787 0.015,-3.555 0.152,-5.307 0.133,-1.753 0.353,-3.505 0.656,-5.255 0.135,-0.811 0.27,-1.627 0.404,-2.451 0.135,-0.827 0.336,-1.627 0.608,-2.403 0.303,-0.944 0.682,-1.828 1.137,-2.653 0.455,-0.827 1.086,-1.542 1.894,-2.147 0.27,-0.17 0.531,-0.321 0.783,-0.456 0.254,-0.134 0.514,-0.235 0.784,-0.302 0.47,-0.137 0.918,-0.153 1.339,-0.053 0.422,0.102 0.834,0.371 1.241,0.811 1.076,1.144 1.953,2.381 2.627,3.714 0.673,1.331 1.195,2.754 1.566,4.272 0.404,1.617 0.707,3.301 0.91,5.053 0.067,0.438 0.178,0.836 0.33,1.189 0.151,0.354 0.36,0.699 0.631,1.034 0.336,0.372 0.732,0.515 1.188,0.431 0.453,-0.085 0.783,-0.346 0.984,-0.784 0,-0.068 0.008,-0.109 0.027,-0.126 0.016,-0.016 0.024,-0.059 0.024,-0.125 0.033,-0.811 0.152,-1.611 0.353,-2.403 0.203,-0.791 0.239,-1.608 0.102,-2.451 -0.168,-1.178 -0.397,-2.351 -0.684,-3.513 -0.285,-1.161 -0.664,-2.283 -1.137,-3.36 -0.437,-1.045 -0.958,-2.013 -1.564,-2.906 -0.607,-0.893 -1.266,-1.763 -1.973,-2.603 -0.371,-0.439 -0.75,-0.852 -1.136,-1.239 -0.387,-0.388 -0.768,-0.784 -1.139,-1.189 -0.674,-0.707 -1.432,-1.203 -2.273,-1.489 -0.842,-0.289 -1.719,-0.514 -2.629,-0.683 -1.684,-0.27 -3.26,-0.193 -4.725,0.226 -1.467,0.422 -2.908,1.07 -4.322,1.946 -1.887,1.146 -3.303,2.595 -4.246,4.347 -0.943,1.753 -1.651,3.658 -2.121,5.712 -0.272,1.282 -0.525,2.561 -0.759,3.842 -0.237,1.279 -0.387,2.577 -0.455,3.892 -0.168,2.021 -0.261,4.035 -0.278,6.04 -0.016,2.005 0.041,4.018 0.177,6.04 0.134,2.223 0.319,4.414 0.556,6.571 0.234,2.155 0.571,4.314 1.012,6.47 0.334,1.851 0.697,3.68 1.085,5.483 0.386,1.802 0.986,3.565 1.792,5.282 0.877,1.82 1.905,3.472 3.086,4.955 1.178,1.48 2.594,2.794 4.245,3.942 1.416,0.977 2.931,1.674 4.55,2.096 C -3.689,-0.312 -1.92,-0.068 0,0"
             style="fill:#bf1b2c;fill-opacity:1;fill-rule:nonzero;stroke:none"
             id="path4834"
             inkscape:connector-curvature="0" /></g><g
           id="g4836"
           transform="translate(199.12696,170.71302)"><path
             d="m 0,0 c 0.066,2.223 0.1,4.296 0.1,6.217 0,1.921 -0.034,3.842 -0.1,5.761 -0.033,2.291 0.623,4.38 1.969,6.269 0.338,0.471 0.76,0.783 1.265,0.935 0.506,0.151 1.028,0.259 1.567,0.327 1.381,0.068 2.754,0.085 4.121,0.052 1.363,-0.035 2.736,-0.084 4.119,-0.152 1.078,-0.068 2.147,-0.136 3.209,-0.202 1.061,-0.068 2.129,-0.136 3.209,-0.202 2.324,-0.17 4.643,-0.363 6.949,-0.582 2.309,-0.22 4.608,-0.598 6.901,-1.137 1.65,-0.405 3.148,-1.061 4.498,-1.972 0.134,-0.101 0.261,-0.193 0.379,-0.278 0.117,-0.084 0.209,-0.193 0.277,-0.327 0.236,-0.372 0.279,-0.691 0.127,-0.96 -0.152,-0.272 -0.43,-0.422 -0.834,-0.457 h -2.299 c -0.76,0 -1.525,0.019 -2.301,0.051 -1.551,0.068 -3.101,0.134 -4.65,0.202 -1.551,0.068 -3.117,0.185 -4.701,0.354 -1.717,0.136 -3.42,0.236 -5.104,0.304 -1.685,0.066 -3.387,0.169 -5.105,0.302 -0.405,0.034 -0.809,0.052 -1.213,0.052 H 11.17 c -0.371,-0.035 -0.6,-0.111 -0.682,-0.228 -0.086,-0.117 -0.093,-0.362 -0.027,-0.732 0.068,-0.305 0.137,-0.615 0.205,-0.936 0.064,-0.321 0.133,-0.632 0.201,-0.934 0.133,-0.473 0.27,-0.767 0.403,-0.884 0.136,-0.12 0.457,-0.179 0.96,-0.179 1.213,-0.033 2.418,-0.033 3.616,0 1.195,0.035 2.4,0.018 3.613,-0.05 2.527,-0.068 5.053,-0.32 7.582,-0.759 C 28.053,9.654 29.096,9.316 30.174,8.846 30.949,8.508 31.582,8.037 32.068,7.431 32.559,6.824 33.037,6.182 33.51,5.51 33.611,5.341 33.695,5.164 33.764,4.979 33.83,4.792 33.779,4.615 33.611,4.448 33.477,4.278 33.326,4.212 33.156,4.245 32.988,4.278 32.82,4.312 32.65,4.346 c -1.716,0.337 -3.42,0.522 -5.103,0.557 -1.688,0.033 -3.389,0.033 -5.106,0 -3.033,0 -6.084,0.101 -9.15,0.302 h -1.01 c -0.404,0 -0.623,-0.201 -0.658,-0.606 0,-0.101 -0.008,-0.194 -0.023,-0.278 -0.018,-0.084 -0.026,-0.16 -0.026,-0.226 -0.168,-3.674 -0.277,-7.33 -0.328,-10.968 -0.051,-3.641 -0.01,-7.297 0.127,-10.969 0.1,-2.966 0.158,-5.888 0.176,-8.769 0.017,-2.881 0.025,-5.787 0.025,-8.721 0,-0.538 -0.017,-1.068 -0.051,-1.592 -0.033,-0.521 -0.084,-1.053 -0.15,-1.592 -0.137,-1.077 0.117,-1.98 0.756,-2.704 0.641,-0.723 1.5,-1.137 2.58,-1.238 0.84,-0.067 1.668,-0.108 2.477,-0.126 0.806,-0.018 1.632,-0.043 2.474,-0.075 2.055,-0.035 4.104,-0.085 6.143,-0.152 2.037,-0.068 4.084,-0.136 6.14,-0.203 0.641,0 1.272,-0.076 1.897,-0.227 0.623,-0.152 1.238,-0.311 1.844,-0.48 0.943,-0.271 1.568,-0.843 1.871,-1.718 0.133,-0.472 0.14,-0.809 0.023,-1.01 -0.117,-0.204 -0.412,-0.338 -0.885,-0.406 -0.875,-0.1 -1.767,-0.194 -2.677,-0.278 -0.911,-0.084 -1.819,-0.143 -2.729,-0.176 -1.92,-0.068 -3.816,-0.129 -5.685,-0.177 -1.873,-0.051 -3.768,-0.112 -5.688,-0.177 -0.641,0 -1.264,-0.019 -1.869,-0.052 -0.607,-0.033 -1.213,-0.049 -1.82,-0.049 -0.743,-0.035 -1.452,-0.144 -2.123,-0.33 -0.674,-0.184 -1.381,-0.312 -2.123,-0.378 -1.18,-0.067 -2.334,0.017 -3.463,0.251 -1.129,0.237 -2.198,0.675 -3.211,1.315 -0.672,0.437 -1.229,1.004 -1.668,1.694 -0.438,0.689 -0.791,1.423 -1.061,2.198 -0.269,0.741 -0.402,1.484 -0.402,2.224 0,0.708 -0.061,1.415 -0.178,2.122 -0.119,0.708 -0.244,1.416 -0.381,2.125 -0.168,1.01 -0.285,2.022 -0.353,3.031 -0.069,1.012 -0.117,2.022 -0.151,3.033 -0.066,2.19 -0.175,4.364 -0.328,6.521 -0.152,2.155 -0.277,4.329 -0.379,6.52 -0.103,1.92 -0.203,3.841 -0.304,5.762 -0.1,1.921 -0.133,3.842 -0.1,5.763 0.033,1.077 0.041,2.14 0.023,3.184 C 0.008,-1.684 0,-0.775 0,0"
             style="fill:#bf1b2c;fill-opacity:1;fill-rule:nonzero;stroke:none"
             id="path4838"
             inkscape:connector-curvature="0" /></g><g
           id="g4876"
           transform="translate(25.279257,155.23452)"><path
             d="m 0,0 c -0.121,-0.215 -0.248,-0.426 -0.382,-0.634 -0.135,-0.209 -0.263,-0.42 -0.383,-0.634 -0.429,-0.763 -0.851,-1.531 -1.266,-2.302 -0.417,-0.773 -0.839,-1.539 -1.267,-2.302 -0.148,-0.27 -0.309,-0.527 -0.483,-0.775 -0.175,-0.249 -0.355,-0.5 -0.544,-0.756 -0.12,-0.16 -0.252,-0.314 -0.392,-0.461 -0.141,-0.149 -0.285,-0.296 -0.432,-0.443 -0.148,-0.133 -0.296,-0.266 -0.443,-0.392 -0.148,-0.127 -0.295,-0.258 -0.443,-0.392 -0.053,-0.054 -0.11,-0.098 -0.17,-0.132 -0.06,-0.032 -0.125,-0.069 -0.191,-0.109 -0.121,0.133 -0.175,0.258 -0.162,0.372 0.014,0.113 0.041,0.225 0.081,0.33 0.188,0.578 0.389,1.141 0.604,1.692 0.214,0.548 0.469,1.086 0.764,1.607 0.296,0.563 0.577,1.12 0.845,1.67 0.267,0.55 0.556,1.099 0.864,1.65 0.242,0.429 0.497,0.852 0.764,1.268 0.269,0.415 0.537,0.837 0.806,1.266 0.12,0.201 0.242,0.406 0.362,0.614 0.121,0.207 0.247,0.413 0.382,0.613 0.066,0.094 0.097,0.179 0.09,0.251 -0.006,0.074 -0.03,0.151 -0.07,0.232 -0.108,0.201 -0.215,0.403 -0.322,0.604 -0.107,0.201 -0.214,0.401 -0.322,0.602 -0.71,1.315 -1.417,2.62 -2.121,3.914 -0.705,1.293 -1.399,2.603 -2.083,3.932 -0.322,0.643 -0.623,1.286 -0.904,1.93 -0.282,0.644 -0.517,1.308 -0.704,1.992 -0.161,0.603 -0.161,1.212 0,1.83 0.067,0.267 0.224,0.469 0.472,0.603 0.248,0.134 0.546,0.141 0.895,0.021 0.214,-0.068 0.399,-0.168 0.553,-0.303 0.154,-0.134 0.299,-0.295 0.433,-0.482 0.228,-0.309 0.455,-0.625 0.684,-0.946 0.228,-0.322 0.455,-0.643 0.683,-0.965 0.523,-0.791 1.039,-1.572 1.549,-2.343 0.51,-0.771 1.018,-1.559 1.528,-2.364 C -0.335,9.655 0.037,9.041 0.392,8.418 0.748,7.795 1.113,7.166 1.488,6.538 1.515,6.47 1.548,6.409 1.589,6.357 1.629,6.303 1.669,6.242 1.71,6.175 c 0.053,0.067 0.096,0.128 0.13,0.182 0.034,0.052 0.064,0.106 0.091,0.16 0.616,1.006 1.23,2.008 1.84,3.007 0.61,0.999 1.231,2.002 1.861,3.008 0.362,0.59 0.724,1.172 1.086,1.749 0.362,0.576 0.73,1.16 1.106,1.75 0.134,0.228 0.275,0.445 0.423,0.654 0.147,0.208 0.295,0.424 0.442,0.653 0.093,0.12 0.214,0.248 0.362,0.382 0.093,0.081 0.188,0.111 0.281,0.091 0.095,-0.02 0.189,-0.058 0.282,-0.11 C 9.789,17.607 9.856,17.439 9.815,17.198 9.775,17.037 9.738,16.876 9.705,16.715 9.671,16.555 9.635,16.393 9.594,16.232 9.499,15.816 9.319,15.401 9.051,14.985 8.823,14.636 8.609,14.274 8.408,13.899 8.206,13.523 7.993,13.162 7.764,12.813 7.269,12.034 6.769,11.261 6.266,10.49 5.762,9.719 5.263,8.944 4.767,8.166 4.419,7.63 4.083,7.097 3.762,6.567 3.439,6.037 3.104,5.511 2.756,4.989 2.595,4.732 2.587,4.492 2.735,4.265 3.312,3.191 3.919,2.149 4.555,1.137 5.193,0.124 5.819,-0.898 6.437,-1.931 6.732,-2.414 7.026,-2.896 7.321,-3.379 7.616,-3.861 7.905,-4.345 8.187,-4.827 8.36,-5.122 8.525,-5.419 8.679,-5.723 8.833,-6.024 8.991,-6.329 9.152,-6.637 9.258,-6.824 9.366,-7.011 9.474,-7.19 9.581,-7.371 9.689,-7.549 9.796,-7.723 9.876,-7.857 9.905,-7.972 9.886,-8.064 9.866,-8.16 9.815,-8.26 9.734,-8.366 9.601,-8.541 9.453,-8.659 9.293,-8.719 9.132,-8.779 8.931,-8.775 8.689,-8.707 7.979,-8.534 7.321,-8.286 6.718,-7.966 6.115,-7.643 5.531,-7.261 4.968,-6.818 4.632,-6.549 4.321,-6.262 4.033,-5.954 3.744,-5.645 3.486,-5.309 3.258,-4.947 2.789,-4.224 2.326,-3.507 1.871,-2.794 1.415,-2.085 0.952,-1.367 0.483,-0.645 0.416,-0.537 0.355,-0.43 0.301,-0.321 0.249,-0.215 0.187,-0.106 0.121,0 Z"
             style="fill:#231f20;fill-opacity:1;fill-rule:nonzero;stroke:none"
             id="path4878"
             inkscape:connector-curvature="0" /></g><g
           id="g4880"
           transform="translate(43.563457,155.23452)"><path
             d="m 0,0 c -0.122,-0.215 -0.249,-0.426 -0.383,-0.634 -0.135,-0.209 -0.261,-0.42 -0.383,-0.634 -0.429,-0.763 -0.85,-1.531 -1.266,-2.302 -0.416,-0.773 -0.838,-1.539 -1.267,-2.302 -0.148,-0.27 -0.309,-0.527 -0.483,-0.775 -0.175,-0.249 -0.356,-0.5 -0.543,-0.756 -0.121,-0.16 -0.252,-0.314 -0.393,-0.461 -0.14,-0.149 -0.285,-0.296 -0.432,-0.443 -0.147,-0.133 -0.295,-0.266 -0.443,-0.392 -0.148,-0.127 -0.294,-0.258 -0.442,-0.392 -0.053,-0.054 -0.111,-0.098 -0.171,-0.132 -0.061,-0.032 -0.124,-0.069 -0.191,-0.109 -0.122,0.133 -0.174,0.258 -0.161,0.372 0.013,0.113 0.039,0.225 0.08,0.33 0.188,0.578 0.39,1.141 0.603,1.692 0.216,0.548 0.471,1.086 0.766,1.607 0.294,0.563 0.576,1.12 0.844,1.67 0.268,0.55 0.555,1.099 0.865,1.65 0.241,0.429 0.496,0.852 0.763,1.268 0.27,0.415 0.537,0.837 0.806,1.266 0.12,0.201 0.242,0.406 0.363,0.614 0.119,0.207 0.247,0.413 0.381,0.613 0.067,0.094 0.097,0.179 0.09,0.251 -0.005,0.074 -0.029,0.151 -0.07,0.232 -0.107,0.201 -0.215,0.403 -0.321,0.604 -0.108,0.201 -0.216,0.401 -0.323,0.602 -0.71,1.315 -1.417,2.62 -2.122,3.914 -0.704,1.293 -1.398,2.603 -2.082,3.932 -0.321,0.643 -0.623,1.286 -0.904,1.93 -0.282,0.644 -0.516,1.308 -0.705,1.992 -0.16,0.603 -0.16,1.212 0,1.83 0.067,0.267 0.225,0.469 0.473,0.603 0.248,0.134 0.546,0.141 0.895,0.021 0.214,-0.068 0.4,-0.168 0.554,-0.303 0.154,-0.134 0.298,-0.295 0.432,-0.482 0.229,-0.309 0.456,-0.625 0.684,-0.946 0.228,-0.322 0.455,-0.643 0.684,-0.965 0.522,-0.791 1.039,-1.572 1.549,-2.343 0.509,-0.771 1.018,-1.559 1.528,-2.364 0.389,-0.603 0.762,-1.217 1.117,-1.84 0.355,-0.623 0.72,-1.252 1.096,-1.88 0.026,-0.068 0.06,-0.129 0.1,-0.181 0.04,-0.054 0.08,-0.115 0.12,-0.182 0.054,0.067 0.098,0.128 0.131,0.182 0.034,0.052 0.064,0.106 0.092,0.16 0.616,1.006 1.229,2.008 1.84,3.007 0.609,0.999 1.23,2.002 1.861,3.008 0.361,0.59 0.723,1.172 1.085,1.749 0.363,0.576 0.731,1.16 1.107,1.75 0.134,0.228 0.274,0.445 0.421,0.654 0.148,0.208 0.295,0.424 0.443,0.653 0.094,0.12 0.214,0.248 0.362,0.382 0.094,0.081 0.188,0.111 0.281,0.091 0.095,-0.02 0.188,-0.058 0.282,-0.11 C 9.788,17.607 9.854,17.439 9.814,17.198 9.773,17.037 9.738,16.876 9.704,16.715 9.67,16.555 9.634,16.393 9.594,16.232 9.499,15.816 9.319,15.401 9.05,14.985 8.822,14.636 8.607,14.274 8.407,13.899 8.206,13.523 7.992,13.162 7.763,12.813 7.267,12.034 6.768,11.261 6.265,10.49 5.761,9.719 5.261,8.944 4.766,8.166 4.417,7.63 4.082,7.097 3.761,6.567 3.439,6.037 3.103,5.511 2.755,4.989 2.594,4.732 2.587,4.492 2.735,4.265 3.311,3.191 3.917,2.149 4.555,1.137 5.192,0.124 5.818,-0.898 6.435,-1.931 6.73,-2.414 7.025,-2.896 7.321,-3.379 7.615,-3.861 7.904,-4.345 8.186,-4.827 8.359,-5.122 8.525,-5.419 8.678,-5.723 8.832,-6.024 8.99,-6.329 9.151,-6.637 9.258,-6.824 9.365,-7.011 9.473,-7.19 9.579,-7.371 9.687,-7.549 9.795,-7.723 9.875,-7.857 9.905,-7.972 9.886,-8.064 9.865,-8.16 9.814,-8.26 9.733,-8.366 9.6,-8.541 9.452,-8.659 9.292,-8.719 9.13,-8.779 8.93,-8.775 8.688,-8.707 7.977,-8.534 7.321,-8.286 6.717,-7.966 6.114,-7.643 5.53,-7.261 4.967,-6.818 4.632,-6.549 4.32,-6.262 4.031,-5.954 3.744,-5.645 3.485,-5.309 3.257,-4.947 2.789,-4.224 2.326,-3.507 1.87,-2.794 1.413,-2.085 0.951,-1.367 0.482,-0.645 0.415,-0.537 0.354,-0.43 0.301,-0.321 0.247,-0.215 0.186,-0.106 0.12,0 Z"
             style="fill:#231f20;fill-opacity:1;fill-rule:nonzero;stroke:none"
             id="path4882"
             inkscape:connector-curvature="0" /></g><g
           id="g4884"
           transform="translate(61.846657,155.23452)"><path
             d="m 0,0 c -0.122,-0.215 -0.249,-0.426 -0.383,-0.634 -0.134,-0.209 -0.262,-0.42 -0.383,-0.634 -0.429,-0.763 -0.85,-1.531 -1.266,-2.302 -0.416,-0.773 -0.838,-1.539 -1.267,-2.302 -0.148,-0.27 -0.308,-0.527 -0.483,-0.775 -0.176,-0.249 -0.355,-0.5 -0.543,-0.756 -0.121,-0.16 -0.252,-0.314 -0.392,-0.461 -0.141,-0.149 -0.285,-0.296 -0.433,-0.443 -0.147,-0.133 -0.295,-0.266 -0.443,-0.392 -0.148,-0.127 -0.294,-0.258 -0.442,-0.392 -0.053,-0.054 -0.11,-0.098 -0.17,-0.132 -0.061,-0.032 -0.125,-0.069 -0.192,-0.109 -0.121,0.133 -0.174,0.258 -0.161,0.372 0.014,0.113 0.04,0.225 0.081,0.33 0.187,0.578 0.389,1.141 0.603,1.692 0.215,0.548 0.469,1.086 0.765,1.607 0.294,0.563 0.576,1.12 0.844,1.67 0.268,0.55 0.556,1.099 0.864,1.65 0.242,0.429 0.498,0.852 0.765,1.268 0.268,0.415 0.537,0.837 0.805,1.266 0.121,0.201 0.242,0.406 0.362,0.614 0.121,0.207 0.248,0.413 0.382,0.613 0.067,0.094 0.097,0.179 0.09,0.251 -0.006,0.074 -0.029,0.151 -0.069,0.232 -0.108,0.201 -0.216,0.403 -0.322,0.604 -0.108,0.201 -0.216,0.401 -0.322,0.602 -0.711,1.315 -1.418,2.62 -2.123,3.914 -0.704,1.293 -1.398,2.603 -2.082,3.932 -0.321,0.643 -0.623,1.286 -0.904,1.93 -0.281,0.644 -0.516,1.308 -0.704,1.992 -0.161,0.603 -0.161,1.212 0,1.83 0.068,0.267 0.224,0.469 0.472,0.603 0.248,0.134 0.546,0.141 0.895,0.021 0.215,-0.068 0.4,-0.168 0.554,-0.303 0.153,-0.134 0.298,-0.295 0.432,-0.482 0.229,-0.309 0.456,-0.625 0.684,-0.946 0.228,-0.322 0.456,-0.643 0.684,-0.965 0.523,-0.791 1.039,-1.572 1.548,-2.343 0.51,-0.771 1.019,-1.559 1.528,-2.364 C -0.335,9.655 0.036,9.041 0.392,8.418 0.747,7.795 1.112,7.166 1.488,6.538 1.514,6.47 1.548,6.409 1.588,6.357 1.628,6.303 1.669,6.242 1.709,6.175 1.762,6.242 1.806,6.303 1.84,6.357 c 0.033,0.052 0.063,0.106 0.091,0.16 0.616,1.006 1.23,2.008 1.84,3.007 0.61,0.999 1.23,2.002 1.861,3.008 0.362,0.59 0.724,1.172 1.086,1.749 0.362,0.576 0.73,1.16 1.106,1.75 0.134,0.228 0.274,0.445 0.423,0.654 0.147,0.208 0.293,0.424 0.441,0.653 0.094,0.12 0.214,0.248 0.362,0.382 0.094,0.081 0.188,0.111 0.282,0.091 0.094,-0.02 0.188,-0.058 0.281,-0.11 C 9.789,17.607 9.855,17.439 9.815,17.198 9.774,17.037 9.738,16.876 9.704,16.715 9.67,16.555 9.634,16.393 9.594,16.232 9.499,15.816 9.318,15.401 9.05,14.985 8.822,14.636 8.608,14.274 8.406,13.899 8.206,13.523 7.991,13.162 7.763,12.813 7.268,12.034 6.768,11.261 6.265,10.49 5.762,9.719 5.263,8.944 4.766,8.166 4.417,7.63 4.082,7.097 3.761,6.567 3.439,6.037 3.103,5.511 2.755,4.989 2.595,4.732 2.587,4.492 2.735,4.265 3.311,3.191 3.919,2.149 4.555,1.137 5.192,0.124 5.819,-0.898 6.436,-1.931 6.73,-2.414 7.025,-2.896 7.321,-3.379 7.615,-3.861 7.904,-4.345 8.186,-4.827 8.36,-5.122 8.525,-5.419 8.678,-5.723 8.833,-6.024 8.991,-6.329 9.152,-6.637 9.258,-6.824 9.366,-7.011 9.473,-7.19 9.58,-7.371 9.688,-7.549 9.795,-7.723 9.876,-7.857 9.905,-7.972 9.886,-8.064 9.865,-8.16 9.815,-8.26 9.734,-8.366 9.601,-8.541 9.453,-8.659 9.292,-8.719 9.131,-8.779 8.929,-8.775 8.688,-8.707 7.977,-8.534 7.321,-8.286 6.718,-7.966 6.114,-7.643 5.53,-7.261 4.968,-6.818 4.632,-6.549 4.32,-6.262 4.032,-5.954 3.744,-5.645 3.486,-5.309 3.257,-4.947 2.788,-4.224 2.326,-3.507 1.869,-2.794 1.415,-2.085 0.951,-1.367 0.482,-0.645 0.415,-0.537 0.355,-0.43 0.301,-0.321 0.248,-0.215 0.187,-0.106 0.12,0 Z"
             style="fill:#231f20;fill-opacity:1;fill-rule:nonzero;stroke:none"
             id="path4886"
             inkscape:connector-curvature="0" /></g><g
           id="g4888"
           transform="translate(75.884757,146.56562)"><path
             d="m 0,0 c -0.148,-0.12 -0.321,-0.215 -0.523,-0.281 -0.201,-0.068 -0.395,-0.12 -0.583,-0.16 -0.227,-0.055 -0.462,-0.089 -0.704,-0.101 -0.094,0 -0.19,0.029 -0.292,0.09 -0.1,0.059 -0.19,0.124 -0.27,0.19 -0.216,0.188 -0.37,0.412 -0.463,0.674 -0.094,0.262 -0.175,0.527 -0.241,0.795 -0.148,0.631 -0.242,1.257 -0.282,1.88 -0.041,0.624 -0.053,1.257 -0.041,1.902 0.013,1.246 0.064,2.48 0.151,3.7 0.087,1.22 0.165,2.454 0.232,3.701 0.04,0.793 0.077,1.576 0.111,2.354 0.032,0.777 0.07,1.562 0.11,2.353 0.027,0.671 0.067,1.334 0.12,1.991 0.053,0.657 0.101,1.328 0.141,2.011 0.027,0.51 0.048,1.013 0.061,1.509 0.013,0.495 0.034,0.992 0.06,1.488 0.013,0.256 0.033,0.503 0.06,0.745 0.027,0.241 0.061,0.482 0.1,0.723 0.067,0.309 0.243,0.544 0.524,0.704 0.281,0.162 0.57,0.182 0.866,0.062 0.402,-0.175 0.686,-0.353 0.853,-0.534 0.169,-0.181 0.252,-0.492 0.252,-0.935 0.013,-0.281 0.013,-0.56 0,-0.836 -0.013,-0.274 -0.013,-0.545 0,-0.814 0,-0.173 0.007,-0.344 0.021,-0.512 0.012,-0.168 0.018,-0.34 0.018,-0.513 C 0.269,21.837 0.255,21.499 0.242,21.17 0.229,20.841 0.214,20.509 0.202,20.174 0.189,19.785 0.182,19.393 0.182,18.997 v -1.176 c 0,-0.415 0.003,-0.828 0.009,-1.237 0.008,-0.41 0.004,-0.828 -0.009,-1.257 V 14.141 C 0.182,13.738 0.148,13.342 0.081,12.953 0.014,12.47 -0.013,11.99 0,11.516 0.014,11.04 0.014,10.561 0,10.077 -0.013,9.542 -0.02,9.004 -0.02,8.468 -0.02,7.932 -0.053,7.395 -0.12,6.859 -0.187,6.268 -0.228,5.688 -0.24,5.119 -0.254,4.548 -0.281,3.976 -0.321,3.399 -0.348,3.078 -0.352,2.756 -0.332,2.435 -0.311,2.111 -0.287,1.791 -0.26,1.468 -0.234,1.227 -0.198,0.989 -0.15,0.754 -0.103,0.52 -0.053,0.268 0,0"
             style="fill:#231f20;fill-opacity:1;fill-rule:nonzero;stroke:none"
             id="path4890"
             inkscape:connector-curvature="0" /></g><g
           id="g4892"
           transform="translate(80.490657,146.56562)"><path
             d="m 0,0 c -0.148,-0.12 -0.321,-0.215 -0.522,-0.281 -0.202,-0.068 -0.396,-0.12 -0.584,-0.16 -0.227,-0.055 -0.462,-0.089 -0.703,-0.101 -0.096,0 -0.191,0.029 -0.293,0.09 -0.1,0.059 -0.19,0.124 -0.271,0.19 -0.215,0.188 -0.37,0.412 -0.463,0.674 -0.094,0.262 -0.174,0.527 -0.242,0.795 -0.147,0.631 -0.24,1.257 -0.281,1.88 -0.04,0.624 -0.053,1.257 -0.04,1.902 0.013,1.246 0.064,2.48 0.15,3.7 0.087,1.22 0.166,2.454 0.233,3.701 0.041,0.793 0.077,1.576 0.11,2.354 0.033,0.777 0.07,1.562 0.11,2.353 0.028,0.671 0.067,1.334 0.121,1.991 0.054,0.657 0.101,1.328 0.141,2.011 0.027,0.51 0.047,1.013 0.06,1.509 0.014,0.495 0.034,0.992 0.061,1.488 0.013,0.256 0.033,0.503 0.059,0.745 0.028,0.241 0.062,0.482 0.102,0.723 0.066,0.309 0.241,0.544 0.522,0.704 0.282,0.162 0.57,0.182 0.866,0.062 0.403,-0.175 0.686,-0.353 0.853,-0.534 0.169,-0.181 0.252,-0.492 0.252,-0.935 0.014,-0.281 0.014,-0.56 0,-0.836 -0.012,-0.274 -0.012,-0.545 0,-0.814 0,-0.173 0.007,-0.344 0.021,-0.512 0.013,-0.168 0.02,-0.34 0.02,-0.513 C 0.269,21.837 0.255,21.499 0.241,21.17 0.229,20.841 0.214,20.509 0.201,20.174 0.188,19.785 0.182,19.393 0.182,18.997 v -1.176 c 0,-0.415 0.002,-0.828 0.009,-1.237 0.007,-0.41 0.004,-0.828 -0.009,-1.257 V 14.141 C 0.182,13.738 0.148,13.342 0.081,12.953 0.013,12.47 -0.013,11.99 0,11.516 0.013,11.04 0.013,10.561 0,10.077 -0.013,9.542 -0.02,9.004 -0.02,8.468 -0.02,7.932 -0.053,7.395 -0.121,6.859 -0.187,6.268 -0.227,5.688 -0.241,5.119 -0.254,4.548 -0.281,3.976 -0.321,3.399 -0.349,3.078 -0.352,2.756 -0.332,2.435 -0.311,2.111 -0.288,1.791 -0.261,1.468 -0.234,1.227 -0.198,0.989 -0.15,0.754 -0.103,0.52 -0.053,0.268 0,0"
             style="fill:#231f20;fill-opacity:1;fill-rule:nonzero;stroke:none"
             id="path4894"
             inkscape:connector-curvature="0" /></g><g
           id="g4896"
           transform="translate(15.580557,138.31362)"><path
             d="m 0,0 h 66.854 c 2.147,0 4.834,3.301 1.551,3.301 H 1.552 C -0.596,3.301 -3.282,0 0,0"
             style="fill:#231f20;fill-opacity:1;fill-rule:nonzero;stroke:none"
             id="path4898"
             inkscape:connector-curvature="0" /></g><g
           id="g4900"
           transform="translate(17.136657,174.81752)"><path
             d="M 0,0 H 66.228 C 68.73,0 65.901,4.021 64.042,4.021 H -2.186 C -4.688,4.021 -1.859,0 0,0"
             style="fill:#231f20;fill-opacity:1;fill-rule:nonzero;stroke:none"
             id="path4902"
             inkscape:connector-curvature="0" /></g></g><g
         style="opacity:0.847;fill:#000000"
         id="g4840"
         transform="matrix(1,0,0,1.1361004,563.34762,153.80516)"
         inkscape:export-xdpi="35.25396"
         inkscape:export-ydpi="35.25396"><path
           d="m 0,0 c 0.045,0.034 0.079,0.061 0.101,0.083 0.271,0.475 0.491,0.967 0.661,1.474 0.169,0.507 0.303,1.026 0.406,1.557 0.079,0.383 0.135,0.768 0.169,1.152 0.033,0.381 0.067,0.765 0.102,1.149 0.055,0.587 0.055,1.168 0,1.744 -0.057,0.575 -0.13,1.15 -0.22,1.726 -0.092,0.508 -0.223,0.996 -0.399,1.464 -0.175,0.468 -0.376,0.933 -0.601,1.397 -0.124,0.259 -0.273,0.505 -0.449,0.737 -0.174,0.23 -0.363,0.453 -0.565,0.667 -0.125,0.125 -0.266,0.225 -0.425,0.305 -0.156,0.079 -0.333,0.118 -0.522,0.118 -0.194,0.012 -0.377,0.014 -0.552,0.009 -0.175,-0.006 -0.358,-0.003 -0.55,0.008 -0.226,0 -0.44,-0.084 -0.642,-0.253 -0.543,-0.417 -1.008,-0.889 -1.397,-1.413 -0.39,-0.526 -0.719,-1.092 -0.99,-1.701 C -6.279,9.285 -6.578,8.331 -6.77,7.361 -6.963,6.392 -7.082,5.392 -7.125,4.367 -7.16,3.475 -7.103,2.612 -6.957,1.776 c 0.068,-0.45 0.187,-0.885 0.355,-1.302 0.17,-0.417 0.362,-0.824 0.577,-1.22 0.27,-0.506 0.599,-0.934 0.99,-1.279 0.389,-0.343 0.859,-0.599 1.414,-0.768 0.574,-0.192 1.098,-0.148 1.572,0.136 0.259,0.157 0.494,0.347 0.703,0.567 0.209,0.219 0.398,0.465 0.568,0.735 -0.024,0.034 -0.04,0.071 -0.051,0.111 -0.013,0.039 -0.029,0.076 -0.052,0.11 -0.282,0.711 -0.556,1.416 -0.82,2.116 -0.264,0.699 -0.511,1.41 -0.737,2.132 -0.159,0.474 -0.313,0.942 -0.464,1.404 -0.154,0.463 -0.327,0.92 -0.517,1.371 -0.112,0.26 -0.206,0.519 -0.279,0.778 -0.075,0.26 -0.149,0.52 -0.229,0.78 -0.034,0.157 -0.034,0.321 0,0.49 0.022,0.135 0.088,0.229 0.195,0.28 0.107,0.051 0.222,0.048 0.347,-0.009 0.045,-0.022 0.086,-0.05 0.127,-0.085 0.039,-0.035 0.082,-0.067 0.127,-0.1 0.281,-0.285 0.49,-0.621 0.625,-1.017 0.113,-0.294 0.235,-0.584 0.363,-0.869 0.13,-0.291 0.247,-0.58 0.348,-0.875 0.215,-0.609 0.419,-1.208 0.61,-1.801 0.192,-0.592 0.383,-1.188 0.574,-1.784 0.091,-0.285 0.19,-0.56 0.299,-0.83 C -0.206,0.575 -0.103,0.292 0,0 M -0.525,15.215 C 0.219,14.922 0.823,14.505 1.286,13.961 1.747,13.423 2.108,12.783 2.371,12.05 2.494,11.689 2.608,11.319 2.716,10.941 2.823,10.563 2.905,10.177 2.963,9.783 2.995,9.522 3.047,9.268 3.114,9.02 3.182,8.772 3.227,8.518 3.249,8.26 3.418,6.859 3.424,5.438 3.266,3.994 3.222,3.588 3.152,3.191 3.063,2.809 2.974,2.426 2.883,2.042 2.791,1.658 2.679,1.149 2.527,0.665 2.335,0.202 2.145,-0.261 1.918,-0.705 1.658,-1.134 1.568,-1.303 1.475,-1.47 1.378,-1.634 1.281,-1.798 1.179,-1.958 1.065,-2.116 0.941,-2.308 0.918,-2.494 0.998,-2.673 1.122,-3.002 1.243,-3.335 1.361,-3.674 1.48,-4.012 1.602,-4.35 1.726,-4.689 1.76,-4.802 1.791,-4.914 1.819,-5.026 1.847,-5.14 1.871,-5.252 1.895,-5.365 l 0.203,-1.372 c 0.01,-0.068 0.017,-0.135 0.017,-0.202 0,-0.068 0.006,-0.137 0.017,-0.204 L 2.031,-7.194 c -0.26,0.259 -0.47,0.543 -0.636,0.847 -0.163,0.304 -0.33,0.603 -0.499,0.897 -0.169,0.304 -0.322,0.619 -0.458,0.947 -0.134,0.327 -0.281,0.666 -0.438,1.017 -0.079,-0.08 -0.15,-0.154 -0.212,-0.221 -0.062,-0.068 -0.127,-0.13 -0.194,-0.187 -0.43,-0.382 -0.881,-0.706 -1.355,-0.964 -0.473,-0.259 -0.992,-0.435 -1.557,-0.524 -0.27,-0.047 -0.544,-0.059 -0.821,-0.034 -0.276,0.022 -0.545,0.078 -0.803,0.17 -0.16,0.055 -0.314,0.104 -0.465,0.142 -0.154,0.04 -0.303,0.094 -0.448,0.162 -0.645,0.27 -1.203,0.631 -1.676,1.084 -0.477,0.45 -0.88,0.98 -1.22,1.588 -0.835,1.524 -1.309,3.138 -1.421,4.843 -0.102,1.309 -0.022,2.634 0.237,3.976 0.113,0.61 0.245,1.203 0.396,1.777 0.153,0.575 0.342,1.151 0.567,1.727 0.261,0.677 0.579,1.314 0.956,1.911 0.379,0.599 0.84,1.152 1.381,1.661 0.395,0.36 0.811,0.684 1.243,0.974 0.435,0.286 0.906,0.526 1.415,0.718 0.292,0.147 0.637,0.226 1.032,0.238 0.396,0.009 0.773,-0.012 1.133,-0.071 0.417,-0.054 0.847,-0.144 1.287,-0.269"
           style="fill:#000000;fill-opacity:1;fill-rule:nonzero;stroke:none"
           id="path4842"
           inkscape:connector-curvature="0" /></g><g
         style="opacity:0.847;fill:#000000"
         id="g4844"
         transform="matrix(1,0,0,1.1361004,574.39742,158.32173)"
         inkscape:export-xdpi="35.25396"
         inkscape:export-ydpi="35.25396"><path
           d="m 0,0 c -0.054,-0.123 -0.108,-0.247 -0.16,-0.372 -0.05,-0.124 -0.099,-0.247 -0.143,-0.371 -0.16,-0.508 -0.311,-1.02 -0.457,-1.531 -0.147,-0.515 -0.3,-1.026 -0.458,-1.533 -0.1,-0.316 -0.197,-0.634 -0.288,-0.955 -0.089,-0.323 -0.202,-0.635 -0.336,-0.939 -0.147,-0.295 -0.323,-0.554 -0.526,-0.78 -0.203,-0.226 -0.458,-0.4 -0.761,-0.524 -0.058,-0.023 -0.11,-0.057 -0.162,-0.101 -0.05,-0.045 -0.104,-0.086 -0.16,-0.119 -0.194,-0.114 -0.38,-0.202 -0.568,-0.263 -0.185,-0.062 -0.39,-0.075 -0.617,-0.043 -0.372,0.069 -0.676,0.237 -0.914,0.509 -0.191,0.226 -0.355,0.467 -0.491,0.727 -0.135,0.261 -0.247,0.535 -0.339,0.83 -0.135,0.44 -0.237,0.882 -0.305,1.327 -0.067,0.447 -0.118,0.902 -0.151,1.364 -0.034,0.405 -0.067,0.815 -0.103,1.226 -0.033,0.412 -0.055,0.821 -0.066,1.228 -0.012,0.427 -0.006,0.857 0.017,1.286 0.021,0.429 0.044,0.858 0.067,1.287 0.025,0.508 0.057,1.006 0.101,1.496 0.046,0.492 0.085,0.993 0.119,1.499 0.022,0.191 0.09,0.378 0.204,0.56 0.112,0.178 0.282,0.292 0.507,0.337 0.079,0.023 0.156,0.046 0.227,0.067 0.076,0.022 0.151,0.047 0.23,0.069 0.394,0.045 0.682,-0.113 0.863,-0.473 0.078,-0.148 0.146,-0.298 0.202,-0.45 0.059,-0.153 0.085,-0.319 0.085,-0.499 -0.011,-0.214 0.009,-0.426 0.061,-0.636 0.049,-0.207 0.086,-0.419 0.109,-0.633 0.023,-0.159 0.04,-0.322 0.051,-0.491 0.012,-0.17 0.022,-0.333 0.033,-0.492 0.023,-0.473 0.042,-0.944 0.061,-1.413 0.016,-0.467 0.036,-0.939 0.058,-1.413 0.023,-0.293 0.037,-0.578 0.043,-0.855 0.004,-0.276 0.02,-0.561 0.041,-0.854 0.012,-0.226 0.021,-0.457 0.027,-0.694 0.003,-0.236 0.025,-0.474 0.059,-0.711 0.045,-0.327 0.061,-0.655 0.049,-0.981 -0.01,-0.328 0.028,-0.655 0.12,-0.983 0.033,-0.168 0.091,-0.321 0.168,-0.458 0.091,-0.167 0.191,-0.167 0.306,0 0.068,0.114 0.131,0.227 0.195,0.339 0.061,0.114 0.11,0.232 0.143,0.355 0.091,0.362 0.177,0.722 0.262,1.077 0.085,0.355 0.173,0.713 0.262,1.074 0.125,0.464 0.243,0.919 0.355,1.37 0.115,0.452 0.238,0.903 0.374,1.356 0.1,0.302 0.216,0.601 0.348,0.886 0.129,0.29 0.255,0.579 0.379,0.873 0.056,0.147 0.122,0.287 0.194,0.423 0.074,0.136 0.14,0.277 0.196,0.424 0.247,0.598 0.597,1.162 1.049,1.69 0.08,0.08 0.145,0.183 0.204,0.307 0.134,0.316 0.371,0.474 0.71,0.474 H 1.981 C 2.152,4.893 2.32,4.887 2.49,4.877 2.647,4.865 2.755,4.831 2.81,4.775 2.868,4.718 2.917,4.615 2.964,4.469 3.009,4.312 3.027,4.16 3.022,4.013 3.017,3.865 3.014,3.713 3.014,3.556 3.014,3.308 3.025,3.059 3.047,2.81 3.07,2.563 3.07,2.31 3.047,2.051 3.025,1.542 2.991,1.033 2.946,0.527 2.901,0.019 2.862,-0.49 2.828,-0.996 2.805,-1.336 2.788,-1.677 2.776,-2.021 2.767,-2.365 2.75,-2.708 2.726,-3.045 2.715,-3.271 2.702,-3.496 2.692,-3.722 2.681,-3.947 2.67,-4.173 2.658,-4.398 2.647,-4.613 2.638,-4.828 2.626,-5.042 c -0.013,-0.215 -0.013,-0.429 0,-0.644 0.012,-0.371 0.027,-0.747 0.05,-1.126 0.021,-0.376 0.045,-0.757 0.068,-1.141 0,-0.125 0.006,-0.243 0.017,-0.356 C 2.772,-8.421 2.794,-8.54 2.828,-8.664 2.885,-8.845 2.909,-9.02 2.904,-9.189 2.898,-9.357 2.891,-9.533 2.879,-9.713 2.868,-9.77 2.855,-9.829 2.844,-9.892 2.834,-9.953 2.799,-10.013 2.744,-10.068 2.686,-10.125 2.638,-10.196 2.591,-10.279 2.546,-10.365 2.494,-10.448 2.438,-10.525 2.417,-10.549 2.397,-10.574 2.38,-10.602 2.362,-10.63 2.343,-10.656 2.32,-10.678 2.14,-10.837 1.956,-10.97 1.77,-11.076 1.584,-11.184 1.361,-11.23 1.102,-11.219 c -0.338,0.01 -0.592,0.151 -0.762,0.422 -0.056,0.09 -0.109,0.187 -0.153,0.288 -0.044,0.103 -0.085,0.203 -0.118,0.305 -0.17,0.553 -0.293,1.105 -0.372,1.658 -0.08,0.553 -0.118,1.117 -0.118,1.692 0,0.836 0.008,1.665 0.025,2.488 0.017,0.823 0.07,1.647 0.16,2.471 0.036,0.26 0.072,0.511 0.11,0.753 0.039,0.245 0.082,0.496 0.126,0.754 0.013,0.057 0.021,0.118 0.027,0.186 0.005,0.067 0.015,0.131 0.026,0.185 -0.011,0 -0.021,0.004 -0.026,0.009 C 0.021,-0.002 0.013,0 0,0"
           style="fill:#000000;fill-opacity:1;fill-rule:nonzero;stroke:none"
           id="path4846"
           inkscape:connector-curvature="0" /></g><g
         style="opacity:0.847;fill:#000000"
         id="g4848"
         transform="matrix(1,0,0,1.1361004,580.10252,163.47644)"
         inkscape:export-xdpi="35.25396"
         inkscape:export-ydpi="35.25396"><path
           d="m 0,0 c -0.068,-0.033 -0.148,-0.057 -0.236,-0.068 -0.091,-0.011 -0.18,-0.003 -0.263,0.026 -0.085,0.028 -0.164,0.089 -0.237,0.186 -0.074,0.096 -0.126,0.24 -0.162,0.432 -0.033,0.192 -0.024,0.353 0.025,0.483 0.052,0.128 0.116,0.239 0.196,0.33 0.091,0.1 0.203,0.185 0.339,0.254 0.032,0.021 0.109,0.01 0.228,-0.036 C 0.008,1.562 0.13,1.513 0.254,1.454 0.389,1.399 0.51,1.271 0.618,1.066 0.725,0.862 0.784,0.684 0.795,0.525 0.795,0.446 0.768,0.38 0.72,0.331 0.669,0.279 0.602,0.231 0.516,0.187 0.432,0.141 0.345,0.105 0.254,0.076 0.163,0.047 0.079,0.022 0,0 m 1.303,-13.236 c 0.034,-0.292 0.061,-0.57 0.085,-0.829 0.023,-0.226 0.039,-0.44 0.05,-0.643 0.011,-0.203 0.005,-0.344 -0.015,-0.424 -0.059,-0.215 -0.15,-0.377 -0.273,-0.489 -0.124,-0.113 -0.293,-0.157 -0.507,-0.135 -0.328,0.044 -0.584,0.165 -0.77,0.363 -0.187,0.197 -0.341,0.425 -0.465,0.685 -0.091,0.169 -0.152,0.333 -0.187,0.491 -0.033,0.147 -0.068,0.288 -0.102,0.423 -0.033,0.136 -0.06,0.276 -0.084,0.423 -0.056,0.598 -0.116,1.19 -0.178,1.776 -0.062,0.588 -0.116,1.18 -0.16,1.78 -0.047,0.529 -0.088,1.052 -0.128,1.574 -0.04,0.517 -0.053,1.05 -0.043,1.59 0.012,0.304 0.014,0.609 0.009,0.913 -0.006,0.305 -0.009,0.609 -0.009,0.915 0.012,0.192 0.02,0.38 0.027,0.568 0.005,0.184 0.014,0.374 0.026,0.566 0,0.191 -0.003,0.378 -0.01,0.558 -0.006,0.181 -0.002,0.365 0.01,0.559 0.012,0.224 0.044,0.451 0.101,0.677 0.067,0.27 0.228,0.471 0.483,0.601 0.253,0.129 0.504,0.132 0.752,0.008 0.091,-0.045 0.166,-0.105 0.228,-0.178 0.063,-0.073 0.122,-0.149 0.178,-0.228 0.102,-0.159 0.178,-0.321 0.23,-0.492 0.051,-0.168 0.097,-0.344 0.143,-0.523 0.101,-0.43 0.171,-0.856 0.211,-1.278 0.04,-0.423 0.054,-0.849 0.042,-1.279 C 0.937,-5.557 0.934,-5.843 0.939,-6.117 0.945,-6.395 0.947,-6.68 0.947,-6.974 h 0.018 c 0.022,-0.338 0.032,-0.672 0.032,-1.006 0,-0.333 0.012,-0.67 0.035,-1.006 l 0.255,-3.556 c 0.011,-0.124 0.016,-0.239 0.016,-0.348 z"
           style="fill:#000000;fill-opacity:1;fill-rule:nonzero;stroke:none"
           id="path4850"
           inkscape:connector-curvature="0" /></g><g
         style="opacity:0.847;fill:#000000"
         id="g4852"
         transform="matrix(1,0,0,1.1361004,588.05752,167.55367)"
         inkscape:export-xdpi="35.25396"
         inkscape:export-ydpi="35.25396"><path
           d="M 0,0 C -0.057,0.01 -0.134,0.021 -0.229,0.034 -0.324,0.045 -0.4,0.051 -0.458,0.051 h -2.521 c -0.192,0 -0.386,-0.009 -0.584,-0.025 -0.198,-0.018 -0.398,-0.021 -0.601,-0.01 -0.102,0 -0.207,0.011 -0.315,0.035 -0.106,0.021 -0.209,0.05 -0.311,0.084 -0.09,0.034 -0.176,0.075 -0.254,0.127 -0.079,0.049 -0.164,0.098 -0.256,0.144 0.036,0.247 0.183,0.388 0.442,0.423 0.305,0.034 0.608,0.065 0.915,0.093 0.304,0.027 0.602,0.059 0.896,0.093 0.484,0.045 0.965,0.08 1.439,0.101 0.473,0.023 0.947,0.023 1.422,0 0.022,0 0.068,0.003 0.135,0.009 0.068,0.006 0.113,0.014 0.135,0.024 0.021,0.16 0.045,0.317 0.068,0.475 0.022,0.158 0.044,0.315 0.067,0.474 0.057,0.327 0.109,0.629 0.162,0.906 0.05,0.274 0.103,0.578 0.16,0.906 0.022,0.167 0.051,0.337 0.085,0.507 0.033,0.169 0.061,0.339 0.085,0.507 V 5.078 C 0.676,5.518 0.858,5.789 1.252,5.889 1.444,5.945 1.632,5.976 1.819,5.981 2.005,5.986 2.177,5.918 2.334,5.77 2.471,5.658 2.581,5.533 2.665,5.398 2.751,5.262 2.775,5.095 2.741,4.891 2.718,4.733 2.71,4.568 2.716,4.4 2.722,4.23 2.724,4.067 2.724,3.91 2.724,3.571 2.704,3.252 2.665,2.952 2.626,2.654 2.605,2.335 2.605,1.997 V 1.202 h 0.407 c 0.134,0 0.269,-0.007 0.406,-0.018 0.509,0 1.01,-0.021 1.505,-0.059 C 5.421,1.085 5.918,1.004 6.414,0.88 6.526,0.857 6.637,0.823 6.745,0.777 6.852,0.733 6.962,0.686 7.073,0.643 7.108,0.621 7.139,0.594 7.168,0.566 7.194,0.538 7.231,0.513 7.275,0.489 7.163,0.365 7.049,0.293 6.931,0.271 6.812,0.248 6.689,0.236 6.566,0.236 6.307,0.224 6.057,0.222 5.813,0.229 5.571,0.234 5.32,0.224 5.061,0.202 4.687,0.18 4.318,0.155 3.951,0.126 3.584,0.097 3.215,0.072 2.843,0.051 2.808,0.039 2.775,0.031 2.741,0.026 2.708,0.02 2.662,0.005 2.605,-0.018 v -0.38 c 0,-0.187 -10e-4,-0.41 -0.007,-0.668 C 2.592,-1.326 2.589,-1.6 2.589,-1.888 2.589,-2.175 2.586,-2.449 2.581,-2.708 2.574,-2.969 2.57,-3.191 2.57,-3.376 v -0.382 -2.37 c 0,-0.27 0.006,-0.665 0.019,-1.186 0.011,-0.517 0.026,-1.104 0.043,-1.759 0.016,-0.654 0.035,-1.336 0.057,-2.046 0.025,-0.711 0.056,-1.392 0.094,-2.04 0.039,-0.65 0.08,-1.237 0.118,-1.761 0.04,-0.524 0.089,-0.916 0.144,-1.176 0.08,-0.407 0.168,-0.813 0.263,-1.219 0.095,-0.406 0.217,-0.807 0.365,-1.201 0.021,-0.07 0.039,-0.138 0.05,-0.213 0.011,-0.073 0.027,-0.142 0.05,-0.211 0.036,-0.09 0.068,-0.176 0.103,-0.262 0.033,-0.086 0.073,-0.165 0.118,-0.245 0.09,-0.157 0.178,-0.31 0.263,-0.457 0.082,-0.147 0.171,-0.299 0.262,-0.458 0.078,-0.135 0.093,-0.251 0.041,-0.347 -0.049,-0.096 -0.155,-0.165 -0.313,-0.211 -0.282,-0.057 -0.549,-0.064 -0.803,-0.026 -0.255,0.042 -0.512,0.104 -0.771,0.196 -0.394,0.123 -0.725,0.313 -0.989,0.566 -0.265,0.255 -0.499,0.562 -0.702,0.922 -0.306,0.553 -0.54,1.12 -0.704,1.701 -0.163,0.582 -0.307,1.177 -0.431,1.786 -0.033,0.159 -0.062,0.443 -0.084,0.855 -0.025,0.412 -0.043,0.889 -0.059,1.431 -0.017,0.54 -0.032,1.116 -0.043,1.725 -0.012,0.61 -0.023,1.186 -0.035,1.727 -0.011,0.542 -0.017,1.019 -0.017,1.43 v 0.855 c 0.011,0.428 0.017,0.85 0.017,1.26 0,0.413 0.012,0.826 0.035,1.246 0.011,0.135 0.026,0.335 0.043,0.6 0.016,0.264 0.034,0.564 0.059,0.896 0.022,0.332 0.046,0.68 0.067,1.042 0.023,0.361 0.044,0.708 0.067,1.039 0.024,0.333 0.043,0.633 0.06,0.898 0.017,0.265 0.03,0.466 0.043,0.601 z"
           style="fill:#000000;fill-opacity:1;fill-rule:nonzero;stroke:none"
           id="path4854"
           inkscape:connector-curvature="0" /></g><g
         style="opacity:0.847;fill:#000000"
         id="g4856"
         transform="matrix(1,0,0,1.1361004,599.16011,153.53556)"
         inkscape:export-xdpi="35.25396"
         inkscape:export-ydpi="35.25396"><path
           d="m 0,0 c 0.011,-0.406 0.084,-0.878 0.221,-1.413 0.134,-0.536 0.372,-1.065 0.711,-1.583 0.359,-0.541 0.798,-0.942 1.31,-1.201 0.513,-0.26 1.103,-0.362 1.769,-0.306 0.157,0.023 0.311,0.065 0.457,0.119 0.146,0.057 0.292,0.118 0.44,0.187 0.293,0.146 0.522,0.35 0.686,0.609 0.163,0.259 0.317,0.529 0.465,0.813 0.224,0.462 0.384,0.936 0.474,1.421 0.089,0.485 0.157,0.975 0.201,1.472 0.047,0.429 0.071,0.853 0.071,1.269 0,0.419 -0.048,0.835 -0.136,1.254 C 6.611,2.935 6.562,3.227 6.516,3.521 6.471,3.814 6.414,4.105 6.347,4.4 6.255,4.817 6.147,5.229 6.016,5.637 5.887,6.043 5.709,6.426 5.483,6.786 5.281,7.125 5.049,7.432 4.79,7.701 4.528,7.972 4.209,8.187 3.825,8.344 3.496,8.469 3.226,8.5 3.012,8.436 2.799,8.376 2.584,8.202 2.369,7.922 1.771,7.142 1.291,6.279 0.932,5.332 0.637,4.53 0.415,3.704 0.262,2.852 0.11,2 0.022,1.05 0,0 M 8.039,1.676 C 8.027,1.134 8.011,0.651 7.989,0.229 7.966,-0.193 7.903,-0.604 7.801,-0.998 7.711,-1.338 7.617,-1.673 7.515,-2.005 7.413,-2.339 7.283,-2.668 7.125,-2.996 6.967,-3.3 6.805,-3.6 6.634,-3.895 6.466,-4.186 6.296,-4.48 6.126,-4.772 5.946,-5.067 5.731,-5.326 5.483,-5.553 5.235,-5.777 4.975,-5.985 4.705,-6.177 4.683,-6.199 4.662,-6.214 4.646,-6.22 4.627,-6.226 4.608,-6.241 4.587,-6.263 4.226,-6.579 3.831,-6.777 3.402,-6.863 2.973,-6.949 2.532,-6.99 2.081,-6.99 c -0.191,0 -0.385,0.018 -0.575,0.059 -0.192,0.039 -0.383,0.076 -0.574,0.111 -0.961,0.191 -1.752,0.573 -2.379,1.149 -0.627,0.576 -1.126,1.292 -1.497,2.15 -0.339,0.756 -0.56,1.53 -0.662,2.318 -0.101,0.791 -0.113,1.594 -0.033,2.405 0.056,0.61 0.147,1.207 0.27,1.794 0.124,0.586 0.289,1.168 0.492,1.744 0.293,0.856 0.67,1.655 1.133,2.393 C -1.28,7.873 -0.7,8.541 0,9.139 0.926,9.929 2.002,10.352 3.232,10.408 3.807,10.442 4.324,10.344 4.78,10.112 5.238,9.882 5.647,9.547 6.008,9.105 6.414,8.598 6.727,8.054 6.947,7.472 7.168,6.892 7.352,6.296 7.499,5.687 7.588,5.314 7.658,4.942 7.709,4.569 7.76,4.196 7.812,3.819 7.87,3.438 7.925,3.108 7.975,2.787 8.014,2.471 8.054,2.155 8.062,1.89 8.039,1.676"
           style="fill:#000000;fill-opacity:1;fill-rule:nonzero;stroke:none"
           id="path4858"
           inkscape:connector-curvature="0" /></g><g
         style="opacity:0.847;fill:#000000"
         id="g4860"
         transform="matrix(1,0,0,1.1361004,620.09561,148.92117)"
         inkscape:export-xdpi="35.25396"
         inkscape:export-ydpi="35.25396"><path
           d="M 0,0 C 0.158,0.067 0.314,0.129 0.466,0.186 0.617,0.241 0.768,0.31 0.915,0.388 1.276,0.581 1.647,0.738 2.03,0.861 2.415,0.986 2.804,1.11 3.199,1.235 3.673,1.394 4.143,1.523 4.612,1.626 5.08,1.726 5.556,1.805 6.043,1.861 6.538,1.905 7.022,1.885 7.49,1.793 7.958,1.702 8.411,1.528 8.852,1.27 8.84,1.076 8.796,0.907 8.717,0.762 8.638,0.614 8.502,0.512 8.312,0.456 8.151,0.411 7.997,0.38 7.846,0.363 7.692,0.347 7.537,0.333 7.38,0.321 7.053,0.299 6.729,0.281 6.414,0.27 6.1,0.259 5.782,0.247 5.467,0.237 4.97,0.215 4.487,0.143 4.02,0.024 3.551,-0.094 3.08,-0.198 2.605,-0.288 2.38,-0.333 2.158,-0.398 1.937,-0.483 1.72,-0.567 1.497,-0.65 1.271,-0.727 0.807,-0.887 0.375,-1.086 -0.024,-1.329 -0.428,-1.572 -0.835,-1.806 -1.253,-2.031 -1.534,-2.18 -1.813,-2.328 -2.09,-2.48 c -0.276,-0.152 -0.561,-0.308 -0.854,-0.464 -0.046,0.044 -0.089,0.083 -0.127,0.118 -0.039,0.032 -0.076,0.067 -0.111,0.101 -0.056,0.066 -0.116,0.14 -0.177,0.219 -0.062,0.079 -0.128,0.154 -0.194,0.221 -0.205,0.158 -0.334,0.34 -0.39,0.549 -0.057,0.21 -0.084,0.438 -0.084,0.686 -0.011,0.362 0.005,0.713 0.05,1.058 0.045,0.344 0.095,0.697 0.152,1.058 0.035,0.225 0.084,0.444 0.153,0.652 0.067,0.207 0.129,0.42 0.185,0.635 0.126,0.505 0.249,1.014 0.373,1.523 0.124,0.506 0.26,1.015 0.406,1.523 0.124,0.429 0.279,0.851 0.466,1.27 0.185,0.416 0.391,0.821 0.616,1.218 0.147,0.226 0.291,0.457 0.425,0.694 0.135,0.236 0.275,0.474 0.423,0.71 0.191,0.316 0.383,0.629 0.575,0.939 0.192,0.311 0.394,0.618 0.609,0.924 0.249,0.36 0.503,0.724 0.762,1.09 0.259,0.367 0.518,0.731 0.778,1.093 0.159,0.214 0.299,0.434 0.424,0.659 0.294,0.508 0.58,1.011 0.862,1.508 0.283,0.495 0.553,0.997 0.814,1.506 0.201,0.394 0.369,0.801 0.5,1.218 0.129,0.418 0.203,0.851 0.228,1.302 0.023,0.182 0.011,0.333 -0.036,0.458 -0.112,0.371 -0.371,0.56 -0.776,0.56 C 3.6,20.548 3.254,20.489 2.92,20.377 2.587,20.263 2.262,20.118 1.946,19.937 1.551,19.724 1.196,19.467 0.88,19.167 0.565,18.868 0.275,18.538 0.018,18.177 -0.106,18.007 -0.226,17.84 -0.339,17.668 -0.452,17.501 -0.57,17.337 -0.694,17.178 -0.762,17.076 -0.866,17.01 -1.007,16.975 c -0.141,-0.034 -0.29,-0.023 -0.447,0.035 -0.125,0.044 -0.227,0.124 -0.306,0.236 -0.081,0.113 -0.107,0.232 -0.085,0.357 0.023,0.123 0.058,0.242 0.101,0.355 0.047,0.111 0.092,0.225 0.136,0.337 0.283,0.61 0.644,1.15 1.084,1.626 0.439,0.474 0.93,0.901 1.471,1.285 0.384,0.283 0.788,0.523 1.211,0.72 0.423,0.197 0.872,0.335 1.346,0.415 0.393,0.067 0.771,0.078 1.134,0.033 0.361,-0.044 0.721,-0.141 1.084,-0.287 0.111,-0.045 0.218,-0.092 0.321,-0.135 0.101,-0.047 0.203,-0.091 0.304,-0.136 0.226,-0.1 0.421,-0.234 0.584,-0.399 0.163,-0.162 0.307,-0.347 0.433,-0.549 0.426,-0.711 0.658,-1.5 0.692,-2.37 C 8.067,18.104 8.051,17.714 8.005,17.33 7.962,16.947 7.882,16.569 7.768,16.198 7.453,15.09 7.035,14.04 6.517,13.049 5.997,12.056 5.416,11.09 4.774,10.154 4.388,9.614 4.006,9.071 3.623,8.529 3.238,7.988 2.864,7.435 2.505,6.872 2.144,6.329 1.839,5.761 1.591,5.162 1.344,4.564 1.129,3.943 0.947,3.3 0.88,3.029 0.801,2.76 0.711,2.495 0.62,2.23 0.53,1.97 0.441,1.709 0.418,1.617 0.394,1.531 0.373,1.445 0.351,1.362 0.327,1.275 0.305,1.185 0.248,0.991 0.198,0.801 0.152,0.608 0.108,0.417 0.057,0.215 0,0"
           style="fill:#000000;fill-opacity:1;fill-rule:nonzero;stroke:none"
           id="path4862"
           inkscape:connector-curvature="0" /></g><g
         style="opacity:0.847;fill:#000000"
         id="g4864"
         transform="matrix(1,0,0,1.1361004,642.08202,168.18615)"
         inkscape:export-xdpi="35.25396"
         inkscape:export-ydpi="35.25396"><path
           d="m 0,0 c -0.044,-0.112 -0.082,-0.204 -0.11,-0.277 -0.029,-0.075 -0.053,-0.145 -0.077,-0.212 -0.1,-0.318 -0.197,-0.629 -0.287,-0.94 -0.091,-0.311 -0.187,-0.623 -0.287,-0.939 -0.215,-0.644 -0.429,-1.287 -0.644,-1.93 -0.215,-0.643 -0.429,-1.286 -0.642,-1.93 -0.25,-0.778 -0.495,-1.547 -0.737,-2.309 -0.244,-0.762 -0.483,-1.532 -0.721,-2.31 -0.224,-0.722 -0.448,-1.442 -0.666,-2.159 -0.221,-0.716 -0.449,-1.432 -0.686,-2.142 -0.069,-0.202 -0.117,-0.358 -0.143,-0.464 -0.031,-0.107 -0.031,-0.197 0,-0.271 0.026,-0.074 0.087,-0.14 0.185,-0.204 0.096,-0.061 0.233,-0.143 0.415,-0.245 0.281,-0.157 0.606,-0.273 0.972,-0.348 0.367,-0.073 0.737,-0.091 1.109,-0.056 0.372,0.032 0.74,0.131 1.101,0.294 0.361,0.166 0.676,0.411 0.947,0.737 0.125,0.147 0.237,0.296 0.339,0.449 0.1,0.152 0.203,0.307 0.303,0.463 0.147,0.227 0.3,0.453 0.458,0.679 0.157,0.225 0.282,0.463 0.372,0.71 0.349,0.87 0.62,1.75 0.812,2.64 0.193,0.892 0.272,1.812 0.237,2.759 -0.022,0.734 -0.072,1.454 -0.152,2.159 -0.08,0.704 -0.215,1.413 -0.407,2.123 -0.158,0.587 -0.344,1.154 -0.565,1.702 -0.221,0.546 -0.488,1.08 -0.805,1.599 C 0.289,-0.365 0.245,-0.304 0.195,-0.236 0.143,-0.167 0.079,-0.09 0,0 m -6.805,-14.217 c 0.034,0.012 0.075,0.029 0.118,0.053 0.011,0.033 0.024,0.063 0.035,0.093 0.011,0.028 0.023,0.058 0.035,0.091 0.135,0.498 0.266,0.992 0.396,1.483 0.129,0.49 0.275,0.977 0.433,1.462 0.28,0.904 0.567,1.801 0.854,2.691 0.289,0.893 0.579,1.782 0.872,2.676 0.168,0.541 0.335,1.077 0.499,1.607 0.163,0.53 0.336,1.068 0.516,1.608 0.215,0.666 0.454,1.314 0.72,1.947 0.264,0.631 0.577,1.246 0.938,1.844 0.036,0.067 0.066,0.137 0.094,0.203 0.026,0.068 0.061,0.142 0.093,0.22 C -1.417,2.02 -1.651,2.237 -1.904,2.414 -2.157,2.587 -2.444,2.72 -2.758,2.811 -3.008,2.619 -3.253,2.427 -3.495,2.234 -3.739,2.044 -3.973,1.847 -4.197,1.643 -4.56,1.314 -4.895,0.975 -5.204,0.619 -5.516,0.264 -5.794,-0.129 -6.042,-0.557 -6.402,-1.168 -6.703,-1.795 -6.94,-2.444 -7.177,-3.093 -7.392,-3.757 -7.581,-4.433 -7.808,-5.256 -7.97,-6.09 -8.065,-6.931 -8.16,-7.771 -8.21,-8.613 -8.21,-9.458 c 0.011,-1.321 0.3,-2.573 0.865,-3.758 0.09,-0.172 0.179,-0.337 0.27,-0.5 0.091,-0.164 0.181,-0.33 0.27,-0.501 m 10.731,6.044 c 0.046,-0.937 -0.013,-1.856 -0.178,-2.76 -0.161,-0.902 -0.391,-1.799 -0.685,-2.691 -0.259,-0.777 -0.576,-1.521 -0.948,-2.227 -0.372,-0.705 -0.847,-1.359 -1.422,-1.97 -0.44,-0.474 -0.92,-0.874 -1.437,-1.202 -0.52,-0.327 -1.101,-0.558 -1.744,-0.693 -0.677,-0.159 -1.357,-0.219 -2.038,-0.178 -0.684,0.039 -1.353,0.178 -2.008,0.414 -0.474,0.17 -0.918,0.391 -1.336,0.661 -0.417,0.271 -0.809,0.58 -1.168,0.93 -0.575,0.577 -1.092,1.196 -1.549,1.864 -0.458,0.665 -0.849,1.375 -1.177,2.131 -0.327,0.767 -0.561,1.548 -0.702,2.344 -0.141,0.796 -0.223,1.605 -0.245,2.428 -0.011,0.34 -0.022,0.68 -0.033,1.023 -0.011,0.345 0.011,0.687 0.066,1.026 0.136,0.8 0.298,1.593 0.484,2.377 0.185,0.786 0.425,1.555 0.718,2.311 0.326,0.823 0.697,1.618 1.109,2.385 0.412,0.768 0.894,1.497 1.447,2.186 0.451,0.563 0.947,1.074 1.489,1.531 0.541,0.458 1.141,0.847 1.794,1.176 0.543,0.27 1.1,0.437 1.676,0.499 0.576,0.062 1.131,0.027 1.669,-0.103 C -1.758,5.16 -1.25,4.943 -0.769,4.639 -0.289,4.334 0.129,3.95 0.49,3.488 1.63,2.02 2.471,0.414 3.013,-1.335 c 0.178,-0.576 0.32,-1.16 0.423,-1.752 0.1,-0.593 0.179,-1.192 0.237,-1.804 0.045,-0.462 0.089,-0.918 0.136,-1.37 0.045,-0.451 0.083,-0.915 0.117,-1.389 0.012,-0.09 0.014,-0.177 0.01,-0.26 -0.007,-0.086 -0.01,-0.174 -0.01,-0.263"
           style="fill:#000000;fill-opacity:1;fill-rule:nonzero;stroke:none"
           id="path4866"
           inkscape:connector-curvature="0" /></g><g
         style="opacity:0.847;fill:#000000"
         id="g4868"
         transform="matrix(1,0,0,1.1361004,650.15522,171.34144)"
         inkscape:export-xdpi="35.25396"
         inkscape:export-ydpi="35.25396"><path
           d="m 0,0 c -0.124,-0.112 -0.237,-0.206 -0.339,-0.279 -0.101,-0.074 -0.197,-0.157 -0.288,-0.246 -0.26,-0.271 -0.538,-0.525 -0.837,-0.761 -0.299,-0.237 -0.562,-0.515 -0.786,-0.829 -0.237,-0.307 -0.538,-0.419 -0.899,-0.339 -0.225,0.056 -0.379,0.178 -0.464,0.363 -0.085,0.186 -0.06,0.375 0.076,0.568 0.113,0.146 0.231,0.275 0.355,0.388 0.339,0.295 0.682,0.581 1.032,0.864 0.35,0.282 0.7,0.563 1.049,0.847 0.338,0.259 0.677,0.518 1.016,0.778 0.338,0.259 0.677,0.519 1.017,0.778 0.065,0.057 0.137,0.11 0.211,0.16 0.072,0.053 0.143,0.104 0.21,0.163 C 1.455,2.544 1.565,2.601 1.684,2.622 1.802,2.645 1.923,2.669 2.047,2.691 2.105,2.702 2.16,2.688 2.218,2.647 2.272,2.608 2.317,2.566 2.353,2.521 2.544,2.229 2.677,1.915 2.749,1.582 2.824,1.25 2.87,0.907 2.894,0.558 2.929,-0.016 2.926,-0.581 2.886,-1.135 2.846,-1.687 2.787,-2.25 2.708,-2.826 2.628,-3.401 2.548,-3.98 2.463,-4.562 2.378,-5.144 2.308,-5.722 2.25,-6.298 2.194,-6.782 2.154,-7.264 2.132,-7.743 2.109,-8.223 2.087,-8.705 2.064,-9.191 2.03,-10.071 2.003,-10.948 1.98,-11.823 c -0.022,-0.873 -0.051,-1.751 -0.085,-2.63 -0.022,-0.645 -0.04,-1.284 -0.051,-1.922 -0.011,-0.638 -0.062,-1.278 -0.153,-1.922 -0.044,-0.305 -0.075,-0.608 -0.092,-0.913 -0.018,-0.304 -0.043,-0.61 -0.076,-0.914 -0.01,-0.102 -0.031,-0.202 -0.06,-0.305 -0.028,-0.102 -0.052,-0.209 -0.074,-0.322 -0.024,-0.078 -0.042,-0.157 -0.053,-0.237 -0.011,-0.078 -0.027,-0.158 -0.05,-0.238 -0.022,-0.077 -0.043,-0.154 -0.059,-0.228 -0.017,-0.073 -0.042,-0.137 -0.076,-0.192 -0.069,-0.127 -0.136,-0.245 -0.204,-0.357 -0.068,-0.113 -0.14,-0.22 -0.22,-0.321 -0.08,-0.124 -0.186,-0.21 -0.322,-0.254 -0.226,-0.057 -0.442,-0.07 -0.65,-0.044 -0.209,0.029 -0.393,0.15 -0.552,0.365 -0.077,0.101 -0.15,0.206 -0.219,0.313 -0.066,0.108 -0.125,0.218 -0.169,0.331 -0.181,0.496 -0.333,0.988 -0.457,1.48 -0.124,0.491 -0.187,1.001 -0.187,1.531 0,0.125 -0.012,0.255 -0.033,0.391 -0.023,0.135 -0.04,0.27 -0.05,0.404 -0.012,0.328 -0.024,0.651 -0.035,0.966 -0.012,0.316 -0.023,0.638 -0.033,0.965 v 1.676 c 0,0.554 0.01,1.111 0.033,1.674 0.011,0.429 0.029,0.862 0.051,1.295 0.023,0.435 0.051,0.867 0.085,1.294 0.022,0.362 0.048,0.727 0.075,1.093 0.028,0.368 0.078,0.732 0.144,1.093 0.058,0.314 0.091,0.63 0.102,0.947 0.011,0.316 0.051,0.626 0.119,0.931 0.09,0.474 0.179,0.942 0.263,1.405 0.084,0.462 0.182,0.924 0.296,1.387 0.123,0.509 0.253,1.013 0.388,1.515 C -0.288,-1.064 -0.147,-0.543 0,0"
           style="fill:#000000;fill-opacity:1;fill-rule:nonzero;stroke:none"
           id="path4870"
           inkscape:connector-curvature="0" /></g><g
         style="opacity:0.847;fill:#000000"
         id="g4872"
         transform="matrix(1,0,0,1.1361004,660.15722,166.57186)"
         inkscape:export-xdpi="35.25396"
         inkscape:export-ydpi="35.25396"><path
           d="M 0,0 C 0.124,0.204 0.234,0.395 0.331,0.576 0.426,0.756 0.523,0.936 0.626,1.117 0.853,1.535 1.08,1.953 1.312,2.37 1.543,2.788 1.771,3.203 1.997,3.623 L 2.81,5.044 C 2.865,5.135 2.888,5.233 2.876,5.34 2.865,5.448 2.832,5.529 2.776,5.585 2.709,5.642 2.637,5.658 2.565,5.636 2.49,5.614 2.421,5.592 2.353,5.568 2.329,5.556 2.308,5.546 2.284,5.534 2.262,5.523 2.24,5.512 2.218,5.501 1.923,5.344 1.637,5.166 1.355,4.967 1.072,4.771 0.796,4.576 0.523,4.385 0.006,4.035 -0.44,3.606 -0.812,3.098 -1.05,2.794 -1.135,2.438 -1.065,2.032 -1.021,1.738 -0.93,1.468 -0.795,1.219 -0.66,0.97 -0.514,0.727 -0.355,0.491 -0.3,0.412 -0.241,0.337 -0.187,0.263 -0.129,0.19 -0.068,0.102 0,0 m -0.711,-4.518 c -0.058,-0.069 -0.104,-0.126 -0.143,-0.171 -0.042,-0.043 -0.072,-0.096 -0.093,-0.151 -0.318,-0.554 -0.61,-1.089 -0.882,-1.609 -0.192,-0.36 -0.385,-0.719 -0.584,-1.074 -0.197,-0.355 -0.38,-0.713 -0.548,-1.075 -0.295,-0.609 -0.576,-1.22 -0.847,-1.838 -0.271,-0.614 -0.542,-1.224 -0.812,-1.834 -0.124,-0.26 -0.211,-0.526 -0.264,-0.796 -0.05,-0.27 -0.092,-0.547 -0.127,-0.829 -0.021,-0.204 0,-0.406 0.07,-0.609 0.067,-0.203 0.168,-0.389 0.303,-0.559 0.136,-0.169 0.294,-0.314 0.474,-0.432 0.182,-0.119 0.367,-0.194 0.559,-0.23 0.44,-0.089 0.877,-0.123 1.311,-0.099 0.435,0.022 0.868,0.105 1.294,0.253 0.645,0.214 1.219,0.516 1.72,0.905 0.501,0.391 0.917,0.885 1.244,1.482 0.202,0.383 0.344,0.776 0.422,1.176 0.08,0.4 0.125,0.816 0.135,1.244 0,0.316 -0.01,0.629 -0.033,0.94 -0.022,0.309 -0.045,0.623 -0.067,0.939 -0.025,0.26 -0.07,0.508 -0.145,0.745 -0.073,0.238 -0.171,0.468 -0.295,0.695 -0.294,0.473 -0.634,0.896 -1.016,1.267 -0.281,0.273 -0.56,0.542 -0.829,0.814 -0.271,0.271 -0.554,0.552 -0.847,0.846 m 1.982,3.401 C 1.382,-1.23 1.461,-1.303 1.507,-1.336 2.082,-1.787 2.631,-2.265 3.157,-2.767 3.681,-3.27 4.169,-3.808 4.62,-4.382 5.05,-4.926 5.392,-5.498 5.646,-6.102 5.898,-6.704 6.064,-7.346 6.144,-8.021 6.347,-9.964 6.087,-11.824 5.365,-13.608 5.162,-14.093 4.904,-14.537 4.596,-14.944 4.283,-15.351 3.932,-15.729 3.538,-16.079 3.085,-16.473 2.611,-16.818 2.117,-17.11 1.619,-17.404 1.1,-17.674 0.559,-17.924 0.085,-18.137 -0.4,-18.289 -0.897,-18.38 c -0.497,-0.091 -1.005,-0.106 -1.524,-0.052 -0.812,0.091 -1.509,0.328 -2.089,0.71 -0.582,0.385 -1.052,0.944 -1.413,1.677 -0.181,0.373 -0.3,0.76 -0.356,1.16 -0.056,0.401 -0.062,0.815 -0.018,1.243 0.045,0.507 0.146,0.992 0.297,1.447 0.152,0.457 0.324,0.912 0.516,1.364 0.225,0.517 0.452,1.032 0.678,1.54 0.225,0.507 0.452,1.021 0.677,1.539 0.292,0.667 0.601,1.316 0.922,1.957 0.32,0.636 0.657,1.27 1.007,1.902 0.033,0.058 0.061,0.111 0.085,0.161 0.021,0.052 0.039,0.088 0.05,0.109 -0.114,0.124 -0.22,0.247 -0.321,0.366 -0.101,0.118 -0.208,0.232 -0.322,0.346 -0.462,0.473 -0.86,0.988 -1.192,1.541 -0.333,0.553 -0.579,1.149 -0.738,1.795 -0.168,0.711 -0.185,1.388 -0.049,2.038 0.134,0.648 0.44,1.262 0.914,1.838 0.168,0.189 0.339,0.38 0.515,0.565 0.174,0.186 0.358,0.363 0.55,0.533 0.654,0.531 1.4,0.892 2.234,1.083 0.362,0.079 0.717,0.164 1.068,0.255 0.348,0.089 0.704,0.13 1.065,0.118 C 1.885,6.843 2.105,6.826 2.318,6.805 2.532,6.782 2.752,6.759 2.979,6.737 3.091,6.714 3.201,6.694 3.31,6.678 3.416,6.661 3.526,6.641 3.639,6.618 3.808,6.595 3.957,6.543 4.089,6.457 4.219,6.372 4.339,6.268 4.452,6.145 4.529,6.043 4.559,5.918 4.536,5.77 4.513,5.626 4.488,5.485 4.46,5.349 4.431,5.214 4.405,5.071 4.384,4.926 4.361,4.656 4.293,4.404 4.182,4.172 4.067,3.94 3.949,3.709 3.826,3.47 3.635,3.143 3.45,2.815 3.275,2.488 3.1,2.161 2.924,1.835 2.741,1.507 2.585,1.212 2.423,0.926 2.26,0.643 2.097,0.361 1.935,0.08 1.777,-0.202 Z"
           style="fill:#000000;fill-opacity:1;fill-rule:nonzero;stroke:none"
           id="path4874"
           inkscape:connector-curvature="0" /></g><g
         style="opacity:0.847;fill:#000000"
         id="g4904"
         transform="matrix(1,0,0,1.1361004,555.33882,137.01439)"
         inkscape:export-xdpi="35.25396"
         inkscape:export-ydpi="35.25396"><path
           d="m 0,0 h 107.404 c 2.148,0 4.834,3.301 1.551,3.301 H 1.551 C -0.597,3.301 -3.283,0 0,0"
           style="fill:#000000;fill-opacity:1;fill-rule:nonzero;stroke:none"
           id="path4906"
           inkscape:connector-curvature="0" /></g><g
         style="opacity:0.847;fill:#000000"
         id="g4908"
         transform="matrix(1,0,0,1.1361004,554.88762,176.18543)"
         inkscape:export-xdpi="35.25396"
         inkscape:export-ydpi="35.25396"><path
           d="m 0,0 h 107.5 c 3.181,0 2.974,4.344 -0.182,4.344 H -0.182 C -3.362,4.344 -3.155,0 0,0"
           style="fill:#000000;fill-opacity:1;fill-rule:nonzero;stroke:none"
           id="path4910"
           inkscape:connector-curvature="0" /></g></g></g></svg>